<?xml version="1.0" encoding="UTF-8"?>
<!DOCTYPE svg PUBLIC "-//W3C//DTD SVG 1.1//EN" "http://www.w3.org/Graphics/SVG/1.1/DTD/svg11.dtd">
<!-- Creator: CorelDRAW -->
<svg xmlns="http://www.w3.org/2000/svg" xml:space="preserve" width="35.8882mm" height="35.958mm" version="1.1" style="shape-rendering:geometricPrecision; text-rendering:geometricPrecision; image-rendering:optimizeQuality; fill-rule:evenodd; clip-rule:evenodd"
viewBox="0 0 3588.82 3595.8"
 xmlns:xlink="http://www.w3.org/1999/xlink"
 xmlns:xodm="http://www.corel.com/coreldraw/odm/2003">
 <defs>
  <style type="text/css">
   <![CDATA[
    .fil2 {fill:none;fill-rule:nonzero}
    .fil0 {fill:#00CCFF;fill-rule:nonzero}
    .fil1 {fill:white;fill-rule:nonzero}
   ]]>
  </style>
    <clipPath id="id0" style="clip-rule:nonzero">
     <path d="M2333.9 2342.77l-1078.74 0 0 -1078.74 1078.74 0 0 1078.74z"/>
    </clipPath>
 </defs>
 <g id="Camada_x0020_1">
  <metadata id="CorelCorpID_0Corel-Layer"/>
  <g id="about-more-circle.svg">
   <path class="fil0" d="M1831.22 279.43l21.31 -273.94 52.83 4.11 -21.31 273.94 -52.83 -4.11zm27 2.1l3.9 -50.09 154.58 12.03 -3.9 50.09 -154.58 -12.03z"/>
   <path class="fil0" d="M2066.28 302.7l64.72 -267.03 51.5 12.48 -64.72 267.04 -51.5 -12.49zm26.33 6.39l11.83 -48.84 154.5 37.45 -11.84 48.83 -154.49 -37.44zm26.9 -111.01l11.83 -48.83 143.06 34.67 -11.84 48.83 -143.05 -34.67zm25.98 -107.2l11.83 -48.83 154.5 37.44 -11.83 48.83 -154.5 -37.44z"/>
   <path class="fil0" d="M2473.79 439.09l16.98 -283.92 1.18 -8.49 48.46 21.43 -14.37 290.65 -1.27 2.87 -50.98 -22.54zm-188.46 -83.35l1.27 -2.87 205.35 -206.19 48.46 21.43 -6.57 6.11 -198.62 203.59 -49.89 -22.07zm70.87 -36.04l31.09 -41.19 129.59 57.32 -9.55 50.71 -151.13 -66.84z"/>
   <path class="fil0" d="M2570.67 490.12l155.16 -226.76 42.1 28.81 -155.15 226.77 -42.11 -28.82zm80.34 -71.54l26.83 -39.2 70.61 48.32c11.22,7.69 21.73,10.9 31.46,9.64 9.9,-1.48 18.15,-7.08 24.79,-16.8l43.74 29.92c-14.63,21.38 -32.99,33.87 -55.09,37.45 -21.9,3.73 -44.39,-2.32 -67.52,-18.13l-74.82 -51.2zm153.69 1.96c6.67,-9.72 8.81,-19.34 6.46,-28.88 -2.2,-9.75 -8.92,-18.47 -20.16,-26.16l-70.62 -48.31 26.83 -39.2 74.82 51.2c23.13,15.81 36.89,34.59 41.36,56.35 4.65,21.9 -0.32,43.54 -14.95,64.92l-43.74 -29.92zm-110.27 154.25l17.48 -132.61 49.53 18.67 -18.28 143.49 -1.77 2.59 -46.96 -32.14z"/>
   <path class="fil0" d="M2917.71 774.95l59 -311.08 10.05 -9.93 37.26 37.69 -58.74 311.35 -10.03 9.94 -37.54 -37.97zm-126.37 -127.86l195.42 -193.15 37.26 37.69 -195.42 193.15 -37.26 -37.69zm126.37 127.86l195.42 -193.15 37.54 37.97 -195.42 193.15 -37.54 -37.97z"/>
   <path class="fil0" d="M3135.33 1083.54l7.51 -3.42 289.06 -20.77 23.55 45.72 -7.33 3.77 -289.09 20.77 -23.7 -46.07zm-56.78 -110.28l244.31 -125.75 24.24 47.11 -244.29 125.75 -24.26 -47.11zm56.96 110.63l184.68 -223.54 7.33 -3.77 23.73 46.07 -184.89 223.19 -7.33 3.77 -23.52 -45.72zm56.04 108.89l244.32 -125.75 24.23 47.11 -244.29 125.75 -24.26 -47.11z"/>
   <path class="fil0" d="M3263.36 1432.59c-6.35,-25.39 -6.25,-49.28 0.29,-71.68 6.8,-22.47 19.26,-41.76 37.36,-57.87 18.33,-16.18 41.49,-27.75 69.4,-34.72 27.94,-6.97 53.68,-7.6 77.2,-1.88 23.82,5.66 43.87,16.84 60.17,33.54 16.56,16.63 27.99,37.65 34.34,63.04 6.41,25.64 6.17,49.57 -0.68,71.78 -6.57,22.4 -19,41.69 -37.36,57.87 -18.1,16.11 -41.09,27.65 -69.03,34.62 -27.92,6.97 -53.79,7.63 -77.58,1.97 -23.55,-5.72 -43.6,-16.9 -60.17,-33.54 -16.24,-16.44 -27.56,-37.48 -33.94,-63.13zm48.73 -12.17c3.82,15.24 10.85,27.78 21.12,37.62 10.34,10.09 23.07,16.76 38.18,20 15.34,3.18 32.3,2.46 50.82,-2.16 18.79,-4.69 34.08,-12.02 45.91,-21.98 11.8,-9.96 19.9,-21.82 24.29,-35.59 4.44,-13.52 4.76,-27.89 0.98,-43.13 -3.81,-15.23 -10.88,-27.9 -21.22,-37.99 -10.29,-9.84 -22.97,-16.38 -38.08,-19.63 -15.1,-3.24 -32.06,-2.52 -50.85,2.17 -18.52,4.63 -33.81,11.95 -45.88,21.97 -11.82,9.96 -19.95,21.7 -24.39,35.22 -4.39,13.77 -4.68,28.27 -0.88,43.5z"/>
   <path class="fil0" d="M3307.73 1623.38l274.4 -14.06 2.62 50.96 -274.4 14.06 -2.62 -50.96zm105.59 20.53l47.44 -2.43 4.4 85.46c0.68,13.59 4.49,23.87 11.4,30.86 7.17,6.97 16.62,10.15 28.39,9.55l2.7 52.92c-25.85,1.32 -46.91,-5.72 -63.18,-21.13 -16.22,-15.15 -25.06,-36.71 -26.49,-64.67l-4.66 -90.56zm91.63 123.44c11.75,-0.61 20.72,-4.73 26.88,-12.38 6.4,-7.67 9.29,-18.3 8.57,-31.89l-4.36 -85.45 47.44 -2.44 4.63 90.56c1.43,27.96 -5.16,50.31 -19.77,67.04 -14.57,16.99 -34.82,26.15 -60.69,27.48l-2.7 -52.92zm-189.55 5.78l116.08 -66.48 15.18 50.71 -125.2 72.45 -3.15 0.16 -2.91 -56.84z"/>
   <path class="fil0" d="M3314.69 1894.35l272.78 32.78 -6.32 52.61 -272.79 -32.78 6.33 -52.61zm-3.23 26.89l49.87 5.99 -18.97 157.84 -49.87 -6 18.97 -157.83zm113.4 13.63l49.87 5.99 -17.56 146.14 -49.88 -5.99 17.57 -146.14zm109.51 13.16l49.88 5.99 -18.98 157.84 -49.87 -6 18.97 -157.83z"/>
   <path class="fil0" d="M3331.17 2422.14l66.49 -44.57 18.79 23.26 -58.29 54.9 -26.99 -33.59zm80.88 -46.99l76.73 22.52 -15.45 39.91 -72.18 -34.25 10.9 -28.18zm-71.91 -34.98l71.91 34.98 -10.9 28.18 -76.43 -23.25 15.42 -39.91zm57.52 37.4l57.68 -55.54 26.99 33.58 -65.88 45.22 -18.79 -23.26zm-5.24 13.55l29.53 -4.57 18.31 77.79 -42.57 6.68 -5.27 -79.9zm-19.18 -77.71l42.57 -6.68 6.14 79.82 -29.53 4.57 -19.18 -77.71z"/>
   <path class="fil0" d="M3086.7 2606.55l224.68 158.14 -30.51 43.34 -224.68 -158.14 30.51 -43.34zm-15.59 22.15l41.07 28.92 -89.25 126.78 -41.06 -28.92 89.24 -126.78z"/>
   <path class="fil0" d="M2946.23 2797.34l196.69 191.85 -36.99 37.94 -196.69 -191.87 36.99 -37.92zm-18.92 19.37l35.98 35.08 -111.01 113.8 -35.96 -35.06 110.99 -113.82zm81.78 79.77l35.96 35.09 -102.76 105.35 -35.99 -35.08 102.79 -105.36zm78.96 77.02l35.95 35.09 -110.99 113.79 -35.96 -35.08 111 -113.8z"/>
   <path class="fil0" d="M2621.31 3078.73l235.89 158.9 6.72 5.35 -43.1 30.85 -243 -160.1 -1.83 -2.54 45.32 -32.46zm167.57 -119.94l1.83 2.54 73.21 281.65 -43.1 30.85 -1.91 -8.76 -74.4 -274.53 44.37 -31.75zm-5 79.35l19.69 47.7 -115.23 82.47 -38.81 -33.99 134.35 -96.18z"/>
   <path class="fil0" d="M2528.25 3136.25l116.49 248.84 -46.21 21.61 -116.5 -248.84 46.22 -21.61zm20.81 105.54l20.14 42.99 -77.5 36.3c-12.33,5.77 -20.42,13.15 -24.28,22.2 -3.75,9.26 -3.13,19.24 1.86,29.9l-47.99 22.46c-10.98,-23.46 -12.4,-45.61 -4.26,-66.49 7.91,-20.74 24.55,-37.06 49.91,-48.92l82.12 -38.44zm-79.78 131.39c4.99,10.66 12.2,17.41 21.6,20.22 9.53,3.06 20.45,1.69 32.77,-4.08l77.5 -36.27 20.14 43.02 -82.12 38.44c-25.36,11.88 -48.54,14.21 -69.54,6.99 -21.24,-7.12 -37.36,-22.39 -48.34,-45.86l47.99 -22.46zm-76.83 -173.38l105.34 82.44 -41.24 33.18 -114.31 -88.63 -1.34 -2.83 51.55 -24.16z"/>
   <path class="fil0" d="M2106.5 3290l237.52 209.36 3.42 13.73 -51.41 12.81 -237.9 -209.26 -3.42 -13.71 51.79 -12.93zm174.43 -43.5l66.51 266.59 -51.41 12.81 -66.52 -266.6 51.42 -12.8zm-174.43 43.5l66.51 266.59 -51.79 12.94 -66.51 -266.6 51.79 -12.93z"/>
   <path class="fil0" d="M1727.83 3319.55l-0.89 8.2 -129.68 259.19 -51.33 -3.1 0.49 -8.23 129.69 -259.18 51.72 3.12zm123.81 7.49l-16.56 274.26 -52.89 -3.2 16.56 -274.26 52.89 3.2zm-124.2 -7.52l97.95 272.92 -0.49 8.23 -51.72 -3.12 -97.56 -272.89 0.49 -8.23 51.33 3.09zm-122.24 -7.38l-16.56 274.27 -52.9 -3.2 16.56 -274.24 52.9 3.17z"/>
   <path class="fil0" d="M1362.56 3251.84c25.08,7.49 45.59,19.74 61.53,36.78 15.87,17.3 26.12,37.84 30.77,61.62 4.57,24.03 2.75,49.85 -5.48,77.42 -8.23,27.59 -20.8,50.06 -37.72,67.39 -16.99,17.59 -36.83,29.16 -59.5,34.68 -22.75,5.77 -46.67,4.93 -71.74,-2.56 -25.33,-7.54 -45.8,-19.95 -61.41,-37.15 -15.95,-17.06 -26.21,-37.6 -30.78,-61.62 -4.65,-23.79 -2.86,-49.45 5.37,-77.05 8.23,-27.59 20.84,-50.16 37.84,-67.76 16.91,-17.35 36.75,-28.92 59.49,-34.68 22.43,-5.61 46.3,-4.63 71.63,2.93zm-14.36 48.16c-15.05,-4.5 -29.42,-4.84 -43.13,-1.01 -13.95,3.76 -26.17,11.33 -36.66,22.65 -10.56,11.62 -18.57,26.56 -24.03,44.87 -5.53,18.55 -7.03,35.43 -4.47,50.67 2.56,15.24 8.64,28.26 18.26,39.05 9.36,10.72 21.57,18.31 36.61,22.78 15.05,4.5 29.55,4.87 43.5,1.12 13.71,-3.84 25.8,-11.43 36.29,-22.76 10.48,-11.35 18.49,-26.3 24.03,-44.87 5.46,-18.28 6.95,-35.19 4.47,-50.67 -2.56,-15.24 -8.51,-28.2 -17.88,-38.92 -9.61,-10.79 -21.95,-18.44 -36.99,-22.91z"/>
   <path class="fil0" d="M1175.58 3192.74l-127.99 243.15 -45.15 -23.79 127.98 -243.12 45.16 23.76zm-71.56 80.32l-22.12 42.04 -75.73 -39.87c-12.04,-6.32 -22.82,-8.31 -32.35,-5.95 -9.66,2.62 -17.23,9.13 -22.71,19.55l-46.89 -24.68c12.06,-22.92 28.87,-37.44 50.42,-43.55 21.32,-6.22 44.36,-2.81 69.14,10.24l80.24 42.22zm-152.91 15.77c-5.49,10.43 -6.51,20.24 -3.07,29.45 3.31,9.42 10.99,17.3 23.03,23.65l75.72 39.85 -22.12 42.04 -80.24 -42.25c-24.77,-13.05 -40.63,-30.11 -47.56,-51.2 -7.17,-21.22 -4.72,-43.28 7.35,-66.22l46.89 24.68zm91.78 -165.94l-2.09 133.74 -51.35 -12.83 1.61 -144.65 1.47 -2.78 50.36 26.52z"/>
   <path class="fil0" d="M941.34 3061.77l-167.46 217.83 -42.01 -32.28 167.46 -217.86 42.01 32.31zm-21.48 -16.51l-30.62 39.84 -126.03 -96.89 30.62 -39.84 126.03 96.89zm-69.61 90.56l-30.62 39.82 -116.7 -89.69 30.62 -39.85 116.7 89.72zm-67.22 87.45l-30.62 39.84 -126.04 -96.89 30.62 -39.84 126.04 96.89z"/>
   <path class="fil0" d="M478.65 2806.76l4.58 79.91 -29.58 4.33 -17.64 -78.07 42.64 -6.17zm-0.66 93.53l-58.41 54.61 -26.51 -33.57 66.19 -44.75 18.73 23.71zm66.67 -44.13l-66.67 44.13 -18.73 -23.71 58.89 -54 26.51 33.58zm-61.43 30.51l18.5 77.92 -42.65 6.13 -5.43 -79.72 29.58 -4.33zm-9.01 -11.41l-11.09 27.76 -76.29 -23.79 15.89 -40.06 71.49 36.09zm76.67 22.99l-15.89 40.06 -71.87 -35.29 11.09 -27.76 76.67 22.99z"/>
   <path class="fil0" d="M443.86 2502.41l-250.38 113.16 -21.82 -48.29 250.38 -113.16 21.82 48.29zm-11.15 -24.68l-45.78 20.69 -63.86 -141.28 45.79 -20.69 63.85 141.28z"/>
   <path class="fil0" d="M351.04 2284.72l-265.3 71.48 -13.79 -51.16 265.3 -71.49 13.79 51.17zm-7.04 -26.15l-48.52 13.07 -41.35 -153.5 48.51 -13.07 41.36 153.5zm-110.29 29.71l-48.52 13.07 -38.29 -142.12 48.51 -13.07 38.3 142.12zm-106.5 28.7l-48.52 13.07 -41.36 -153.5 48.52 -13.07 41.36 153.5z"/>
   <path class="fil0" d="M274.86 1862.19l-257.05 121.73 -8.01 3.05 -4.53 -52.8 261.7 -127.25 3.13 -0.26 4.76 55.53zm17.62 205.32l-3.13 0.27 -279.55 -80.81 -4.53 -52.8 8.51 2.82 274.03 76.16 4.67 54.36zm-65.7 -44.79l-51.06 -7.44 -12.11 -141.18 49.05 -16.03 14.12 164.65z"/>
   <path class="fil0" d="M272.95 1749.85l-273.47 -26.74 4.97 -50.78 273.46 26.73 -4.96 50.79zm-101.4 -35.95l-47.27 -4.61 8.33 -85.17c1.32,-13.54 -0.92,-24.28 -6.71,-32.21 -6.06,-7.95 -14.95,-12.5 -26.67,-13.65l5.15 -52.74c25.79,2.53 45.57,12.61 59.36,30.26 13.81,17.39 19.36,40.01 16.63,67.88l-8.82 90.24zm-72.32 -135.64c-11.72,-1.14 -21.19,1.61 -28.42,8.27 -7.48,6.63 -11.89,16.72 -13.21,30.26l-8.33 85.16 -47.27 -4.62 8.83 -90.24c2.72,-27.87 12.54,-49 29.46,-63.38 16.95,-14.65 38.31,-20.71 64.09,-18.19l-5.15 52.74zm188.3 22.36l-124.64 48.55 -7.5 -52.4 134.56 -53.11 3.12 0.31 -5.54 56.65z"/>
   <path class="fil0" d="M355.52 1308.92l-301.15 97.74 -13.54 -4.04 15.15 -50.78 301.27 -98.12 13.54 4.04 -15.27 51.16zm-51.4 172.27l-263.29 -78.57 15.15 -50.78 263.29 78.57 -15.15 50.78zm51.4 -172.27l-263.29 -78.57 15.27 -51.15 263.29 78.56 -15.27 51.16z"/>
   <path class="fil0" d="M521.98 970.29l-6.6 -4.95 -156.69 -243.81 28.86 -42.56 6.83 4.63 156.68 243.81 -29.08 42.88zm-69.63 102.65l-227.39 -154.22 29.74 -43.86 227.4 154.23 -29.75 43.85zm69.85 -102.97l-284.69 -55.07 -6.83 -4.63 29.09 -42.88 284.47 55.39 6.82 4.63 -28.86 42.56zm68.74 -101.36l-227.4 -154.23 29.74 -43.85 227.4 154.22 -29.74 43.86z"/>
   <path class="fil0" d="M766.7 690.55c-19.21,17.78 -40.2,29.19 -62.99,34.23 -22.97,4.85 -45.86,3.22 -68.7,-4.89 -23.01,-8.29 -44.29,-23.01 -63.84,-44.13 -19.55,-21.13 -32.48,-43.39 -38.8,-66.78 -6.49,-23.58 -6.34,-46.54 0.45,-68.87 6.61,-22.52 19.52,-42.66 38.73,-60.44 19.4,-17.95 40.48,-29.26 63.25,-33.93 22.79,-5.05 45.69,-3.42 68.7,4.88 22.83,8.1 44.02,22.72 63.58,43.85 19.55,21.13 32.57,43.48 39.06,67.06 6.32,23.4 6.17,46.35 -0.45,68.87 -6.59,22.15 -19.59,42.2 -38.99,60.15zm-34.13 -36.87c11.53,-10.67 19.13,-22.87 22.81,-36.62 3.87,-13.92 3.6,-28.28 -0.83,-43.08 -4.6,-14.99 -13.39,-29.5 -26.37,-43.52 -13.15,-14.21 -26.93,-24.1 -41.35,-29.66 -14.41,-5.56 -28.71,-6.94 -42.89,-4.16 -13.99,2.61 -26.74,9.24 -38.27,19.91 -11.52,10.66 -19.22,22.95 -23.09,36.88 -3.68,13.74 -3.31,28.02 1.12,42.82 4.42,14.8 13.21,29.3 26.36,43.52 12.98,14.02 26.76,23.9 41.35,29.65 14.42,5.56 28.62,7.04 42.61,4.43 14.18,-2.78 27.03,-9.51 38.55,-20.17z"/>
   <path class="fil0" d="M912.68 559.63l-144.52 -233.69 43.4 -26.84 144.52 233.69 -43.4 26.84zm-32.89 -102.43l-24.98 -40.4 72.78 -45c11.57,-7.16 18.75,-15.45 21.55,-24.86 2.65,-9.65 0.88,-19.47 -5.31,-29.49l45.06 -27.87c13.63,22.03 17.6,43.88 11.92,65.55 -5.45,21.52 -20.09,39.65 -43.9,54.38l-77.12 47.69zm64.04 -139.75c-6.2,-10.01 -14.13,-15.88 -23.8,-17.59 -9.81,-1.93 -20.51,0.68 -32.08,7.84l-72.78 45.01 -24.98 -40.4 77.12 -47.69c23.81,-14.73 46.57,-19.72 68.27,-14.99 21.91,4.6 39.69,17.92 53.31,39.95l-45.06 27.87zm96.38 163.31l-114.18 -69.69 37.13 -37.73 123.8 74.81 1.65 2.67 -48.4 29.94z"/>
   <path class="fil0" d="M1144.74 424.1l-102.44 -254.95 49.17 -19.76 102.44 254.96 -49.17 19.75zm25.13 -10.1l-18.73 -46.62 147.51 -59.27 18.73 46.62 -147.51 59.27zm-42.59 -105.98l-18.73 -46.62 136.58 -54.88 18.74 46.61 -136.59 54.89zm-41.12 -102.35l-18.73 -46.62 147.5 -59.27 18.74 46.62 -147.51 59.27z"/>
   <path class="fil0" d="M1595.22 155.75l-71.76 -35.46 10.82 -27.87 76.63 23.2 -15.69 40.13zm-81.03 -46.75l-18.67 -77.75 42.29 -6.48 6.25 79.65 -29.87 4.58zm5.48 79.78l-5.48 -79.78 29.87 -4.58 17.9 77.87 -42.29 6.49zm3.79 -68.49l-76.89 -22.36 15.69 -40.13 72.02 34.62 -10.82 27.87zm14.36 -2.2l-18.67 -23.35 58.34 -54.61 26.99 33.59 -66.66 44.37zm-57.83 55.33l-27 -33.59 66.16 -45.09 18.67 23.35 -57.83 55.33z"/>
   <g>
   </g>
   <g style="clip-path:url(#id0)">
    <g>
     <path class="fil1" d="M2317.06 2251.01c1.95,0 3.92,-0.34 5.83,-1.05 7.05,-2.59 11.53,-9.52 10.99,-17.02 -0.42,-5.95 -49.59,-589.97 -692.64,-640.08l1.55 -220.1c0.05,-6.91 -4.14,-13.16 -10.57,-15.74 -6.4,-2.58 -13.77,-1 -18.54,4.06l-353.91 374.49c-6.13,6.49 -6.13,16.64 -0.02,23.13l356.13 377.84c4.75,5.08 12.15,6.68 18.55,4.08 6.44,-2.58 10.64,-8.85 10.57,-15.81l-2.04 -214.5c432.63,31.08 658.27,330.77 660.53,333.82 3.25,4.42 8.32,6.88 13.57,6.88zm-708.28 -835.66l-1.38 193.12c-0.07,8.93 6.86,16.38 15.79,16.93 517.63,32.74 640.74,409.76 669.01,554.54 -84.99,-89.5 -309.89,-285.29 -665.35,-304.42 -4.6,-0.29 -9.2,1.43 -12.56,4.65 -3.35,3.22 -5.26,7.69 -5.21,12.34l1.79 189.56 -315.69 -334.94 313.6 -331.78z"/>
    </g>
   </g>
   <polygon class="fil2" points="2333.9,2342.77 1255.16,2342.77 1255.16,1264.03 2333.9,1264.03 "/>
  </g>
 </g>
</svg>
