<?xml version="1.0" encoding="UTF-8"?>
<!DOCTYPE svg PUBLIC "-//W3C//DTD SVG 1.1//EN" "http://www.w3.org/Graphics/SVG/1.1/DTD/svg11.dtd">
<!-- Creator: CorelDRAW -->
<svg xmlns="http://www.w3.org/2000/svg" xml:space="preserve" width="25.679mm" height="7.6728mm" version="1.1" style="shape-rendering:geometricPrecision; text-rendering:geometricPrecision; image-rendering:optimizeQuality; fill-rule:evenodd; clip-rule:evenodd"
viewBox="0 0 2567.9 767.28"
 xmlns:xlink="http://www.w3.org/1999/xlink"
 xmlns:xodm="http://www.corel.com/coreldraw/odm/2003">
 <defs>
  <style type="text/css">
   <![CDATA[
    .fil1 {fill:none}
    .fil0 {fill:#00CCFF;fill-rule:nonzero}
   ]]>
  </style>
   <clipPath id="id0">
    <path d="M-2.34 773.1l2567.9 0 0 -767.28 -2567.9 0 0 767.28z"/>
   </clipPath>
 </defs>
 <g id="Camada_x0020_1">
  <metadata id="CorelCorpID_0Corel-Layer"/>
  <g>
  </g>
  <g style="clip-path:url(#id0)">
   <g id="_2152779216560">
    <path class="fil0" d="M700.4 490.41c-41.73,0 -80.83,-17.67 -116.36,-46.43l8.65 -40.6 0.38 -1.51c7.7,-43.23 32.14,-115.79 107.33,-115.79 56.39,0 102.25,45.87 102.25,102.26 -0.19,56.2 -46.05,102.07 -102.25,102.07zm0 -307.9c-96.06,0 -170.49,62.41 -200.75,165.04 -46.24,-69.36 -81.21,-152.63 -101.69,-222.75l-103.39 0 0 268.99c0,53.01 -43.23,96.23 -96.24,96.23 -53.01,0 -96.24,-43.22 -96.24,-96.23l0 -268.99 -103.39 0 0 268.99c-0.38,110.15 89.29,200.56 199.43,200.56 110.16,0 199.82,-90.41 199.82,-200.56l0 -45.11c20.11,41.91 44.73,84.21 74.62,121.8l-63.35 297.74 105.84 0 45.86 -215.97c40.22,25.75 86.47,41.92 139.47,41.92 113.35,0 205.64,-92.86 205.64,-206.21 0,-113.16 -92.29,-205.45 -205.63,-205.45z"/>
    <path class="fil0" d="M1221.64 194.16l66.73 268.99 73.5 -268.99 87.59 0 -112.97 388.73 -87.6 0 -69.35 -270.68 -69.18 270.48 -87.59 0 -112.98 -388.71 87.6 0 73.49 268.98 66.73 -268.98 84.02 0 0 0.19 0.01 -0.01zm437.41 -11.65c-113.73,0 -205.83,92.29 -205.83,205.82 0,113.73 92.29,205.83 205.83,205.83 113.72,0 206.01,-92.1 206.01,-205.83 0,-113.72 -92.29,-205.82 -206.01,-205.82zm0 327.07c-66.92,0 -121.06,-54.14 -121.06,-121.05 0,-66.93 54.32,-121.06 121.06,-121.06 66.91,0 121.05,54.13 121.05,121.06 0,66.72 -54.14,121.05 -121.05,121.05zm456.2 -228.39c-58.83,0 -106.39,47.75 -106.39,106.39l0 195.11 -88.16 0 0 -388.53 88.16 0 0 59.78c0,0 37.59,-59.97 114.85,-59.97l27.06 0 0 87.22 -35.52 0zm295.87 92.11c62.58,-35.34 105.07,-102.45 105.07,-179.33l-88.16 0c0,64.85 -52.63,117.48 -117.48,117.48l-11.85 0 0 -304.88 -88.15 0 0 576.12 88.15 0 0 -183.08 10.54 0c8.64,0 19.92,5.64 25,12.6l125.18 170.48 105.64 0 -153.94 -209.39z"/>
   </g>
  </g>
  <polygon class="fil1" points="-2.34,773.1 2565.56,773.1 2565.56,5.82 -2.34,5.82 "/>
 </g>
</svg>
