<?xml version="1.0" encoding="UTF-8"?>
<!DOCTYPE svg PUBLIC "-//W3C//DTD SVG 1.1//EN" "http://www.w3.org/Graphics/SVG/1.1/DTD/svg11.dtd">
<!-- Creator: CorelDRAW -->
<svg xmlns="http://www.w3.org/2000/svg" xml:space="preserve" width="35.8882mm" height="35.958mm" version="1.1" style="shape-rendering:geometricPrecision; text-rendering:geometricPrecision; image-rendering:optimizeQuality; fill-rule:evenodd; clip-rule:evenodd"
viewBox="0 0 3588.82 3595.8"
 xmlns:xlink="http://www.w3.org/1999/xlink"
 xmlns:xodm="http://www.corel.com/coreldraw/odm/2003">
 <defs>
  <style type="text/css">
   <![CDATA[
    .fil2 {fill:none}
    .fil0 {fill:#00CCFF}
    .fil1 {fill:#00CCFF;fill-rule:nonzero}
   ]]>
  </style>
   <clipPath id="id0">
    <path d="M450.6 2187.03l2686.6 0 0 -767.28 -2686.6 0 0 767.28z"/>
   </clipPath>
 </defs>
 <g id="Camada_x0020_1">
  <metadata id="CorelCorpID_0Corel-Layer"/>
  <g>
  </g>
  <g style="clip-path:url(#id0)">
   <g id="_2152809571248">
    <path class="fil0" d="M925.68 1529.49l-410.94 0c-16.98,0 -33.26,6.74 -45.27,18.73 -12.02,12 -18.78,28.28 -18.8,45.25l0 410.34c-0.04,8.44 1.6,16.8 4.8,24.6 3.21,7.8 7.92,14.9 13.87,20.87 5.96,5.98 13.03,10.72 20.82,13.96 7.79,3.24 16.14,4.9 24.58,4.9l410.94 0c8.43,-0.01 16.77,-1.69 24.55,-4.93 7.78,-3.24 14.85,-7.98 20.79,-13.96 5.95,-5.97 10.65,-13.06 13.85,-20.86 3.2,-7.8 4.83,-16.15 4.8,-24.58l0 -410.34c-0.03,-16.96 -6.77,-33.22 -18.77,-45.22 -11.99,-11.99 -28.26,-18.74 -45.22,-18.76zm-242.56 387.97c-0.01,2.82 -0.58,5.61 -1.67,8.21 -1.09,2.6 -2.68,4.96 -4.69,6.94 -2.01,1.98 -4.38,3.55 -7,4.61 -2.61,1.06 -5.4,1.59 -8.22,1.57l-89.81 0c-5.64,-0.02 -11.04,-2.28 -15.02,-6.28 -3.99,-4 -6.22,-9.41 -6.22,-15.05l0 -267.25c0,-5.65 2.23,-11.06 6.22,-15.05 3.98,-4 9.38,-6.26 15.02,-6.28l89.81 0c5.65,0.02 11.06,2.28 15.05,6.27 4,3.99 6.25,9.41 6.27,15.06l0.26 267.25zm207.24 -122.7c0,2.82 -0.56,5.61 -1.64,8.22 -1.09,2.6 -2.69,4.97 -4.69,6.95 -2.01,1.98 -4.39,3.55 -7.01,4.61 -2.62,1.05 -5.42,1.58 -8.24,1.54l-89.81 0c-5.65,-0.02 -11.06,-2.27 -15.05,-6.27 -4,-3.99 -6.25,-9.4 -6.28,-15.05l0 -144.55c0.03,-5.65 2.28,-11.07 6.28,-15.06 3.99,-3.99 9.4,-6.25 15.05,-6.27l89.81 0c5.64,0.02 11.04,2.28 15.02,6.28 3.98,3.99 6.22,9.4 6.22,15.05l0.34 144.55z"/>
    <path class="fil1" d="M1567.52 1568.95l0 104.14 -123.39 0 0 395.05 -119 0 0 -395.05 -123.39 0 0 -104.14 365.78 0zm151.46 499.19l-110.01 0 0 -388.57 110.01 0 0 74.43c20.89,-52.42 54.31,-83.59 113.81,-79.79l0 115.11c-77.72,-6.05 -113.81,12.95 -113.81,75.21l0 203.61zm714.8 3.02c-72.1,0 -117.43,-34.54 -117.43,-116.22l0 -425.45 110.78 0 0 410.25c0,23.57 15.55,31.95 34.55,31.95 5.48,0.11 10.96,-0.15 16.4,-0.78l0 95.76c-14.49,3.53 -29.39,5.04 -44.3,4.49zm231.08 0c-72.1,0 -117.53,-34.54 -117.53,-116.22l0 -425.45 110.79 0 0 410.25c0,23.57 15.63,31.95 34.97,31.95 5.45,0.11 10.91,-0.15 16.32,-0.78l0 95.76c-14.57,3.57 -29.56,5.08 -44.55,4.49zm97.66 -197.48c0,-120.03 69.08,-202.15 188.07,-202.15 118.99,0 186.61,81.86 186.61,202.15 0,120.29 -68.4,203.61 -186.61,203.61 -118.21,0 -188.07,-84.36 -188.07,-203.61zm107.85 0c0,58.46 24.52,104.83 80.22,104.83 55.7,0 78.84,-46.37 78.84,-104.83 0,-58.46 -23.75,-103.62 -78.84,-103.62 -55.09,0 -80.22,45.07 -80.22,103.62zm-889.06 35.14c30.8,3.39 61.76,5.2 92.74,5.45 84.28,0 155.43,-22.63 155.43,-104.23 0,-79.18 -73.14,-138.68 -161.13,-138.68 -118.47,0 -194.37,85.92 -194.37,205.95 0,124.6 65.45,198.6 213.37,198.6 43.88,0.36 87.45,-7.43 128.49,-22.97l0 -93.08c-38,12.17 -80.74,24.26 -124.61,24.26 -58.89,0 -99.9,-19.34 -109.92,-75.3zm84.79 -152.66c31.18,0 56.22,21.15 56.22,50.08 0,37.22 -39.29,48.88 -84.54,48.88 -19.26,-0.09 -38.48,-1.62 -57.51,-4.58 1.44,-18.15 6.65,-35.79 15.29,-51.81 6.93,-12.7 17.12,-23.32 29.52,-30.77 12.4,-7.45 26.56,-11.46 41.02,-11.63l0 -0.17z"/>
   </g>
  </g>
  <polygon class="fil2" points="450.6,2187.03 3137.2,2187.03 3137.2,1419.75 450.6,1419.75 "/>
 </g>
</svg>
