<?xml version="1.0" encoding="UTF-8"?>
<!DOCTYPE svg PUBLIC "-//W3C//DTD SVG 1.1//EN" "http://www.w3.org/Graphics/SVG/1.1/DTD/svg11.dtd">
<!-- Creator: CorelDRAW -->
<svg xmlns="http://www.w3.org/2000/svg" xml:space="preserve" width="41.341mm" height="7.6728mm" version="1.1" style="shape-rendering:geometricPrecision; text-rendering:geometricPrecision; image-rendering:optimizeQuality; fill-rule:evenodd; clip-rule:evenodd"
viewBox="0 0 4134.1 767.28"
 xmlns:xlink="http://www.w3.org/1999/xlink"
 xmlns:xodm="http://www.corel.com/coreldraw/odm/2003">
 <defs>
  <style type="text/css">
   <![CDATA[
    .fil1 {fill:none}
    .fil0 {fill:#00CCFF;fill-rule:nonzero}
   ]]>
  </style>
   <clipPath id="id0">
    <path d="M-6.44 773.11l4134.1 0 0 -767.28 -4134.1 0 0 767.28z"/>
   </clipPath>
 </defs>
 <g id="Camada_x0020_1">
  <metadata id="CorelCorpID_0Corel-Layer"/>
  <g>
  </g>
  <g style="clip-path:url(#id0)">
   <g id="_2152787283584">
    <path class="fil0" d="M349.34 5.82c35.24,0 67.77,2.74 97.6,10.85 29.82,5.42 54.22,16.27 75.91,29.82 21.69,13.56 37.96,32.54 48.8,56.96 10.85,24.38 16.27,54.23 16.27,86.76 0,37.93 -8.13,70.49 -27.11,94.89 -16.27,24.38 -43.38,46.07 -75.91,62.33 46.09,13.56 81.33,37.93 103.02,70.49 21.69,32.54 35.24,73.21 35.24,119.3 0,37.92 -8.13,70.49 -21.68,97.6 -13.56,27.11 -35.25,51.51 -59.65,67.78 -24.4,16.29 -54.22,29.85 -86.76,37.95 -32.53,8.11 -65.07,13.56 -97.6,13.56l-363.3 0 0 -748.29 355.17 0zm-21.69 303.66c29.82,0 54.22,-8.14 73.2,-21.69 18.98,-13.56 27.11,-37.96 27.11,-67.78 0,-16.27 -2.71,-32.54 -8.13,-43.38 -5.42,-10.85 -13.56,-18.98 -24.4,-27.11 -10.85,-5.43 -21.69,-10.85 -35.25,-13.56 -13.56,-2.71 -27.11,-2.71 -43.38,-2.71l-157.25 0 0 176.23 168.1 0zm8.13 319.92c16.27,0 32.53,-2.72 46.09,-5.4 13.56,-2.74 27.11,-8.16 37.96,-16.29 10.84,-8.14 18.97,-16.27 27.11,-29.83 5.42,-13.55 10.84,-29.85 10.84,-48.8 0,-37.95 -10.84,-65.07 -32.53,-84.07 -21.69,-16.27 -51.51,-24.37 -86.76,-24.37l-178.94 0 0 208.76 176.23 0zm523.26 -2.72c21.69,21.7 54.22,32.54 97.6,32.54 29.82,0 56.94,-8.14 78.63,-21.69 21.68,-16.3 35.24,-32.54 40.66,-48.83l132.85 0c-21.69,65.07 -54.22,111.19 -97.6,140.98 -43.38,27.11 -94.89,43.41 -157.25,43.41 -43.38,0 -81.34,-8.16 -116.58,-21.72 -35.25,-13.55 -62.36,-32.5 -86.76,-59.62 -24.4,-24.4 -43.38,-54.22 -54.22,-89.49 -13.56,-35.25 -18.98,-73.18 -18.98,-116.58 0,-40.67 5.42,-78.6 18.98,-113.87 13.55,-35.25 32.53,-65.04 56.93,-92.16 24.4,-24.4 54.23,-46.09 86.76,-59.64 35.24,-13.56 70.49,-21.69 113.87,-21.69 46.09,0 86.76,8.13 122,27.11 35.25,18.98 62.36,40.67 84.05,73.2 21.69,29.82 37.96,65.04 48.8,103.03 5.42,37.95 8.14,75.91 5.42,119.29l-393.12 0c0,43.38 16.27,84.04 37.96,105.73zm170.8 -284.67c-18.98,-18.98 -48.8,-29.82 -84.04,-29.82 -24.41,0 -43.38,5.39 -59.65,13.55 -16.27,8.14 -27.11,18.95 -37.96,29.83 -10.84,10.87 -16.26,24.4 -18.97,37.95 -2.72,13.56 -5.43,24.38 -5.43,35.25l244.01 0c-5.42,-40.67 -18.98,-67.78 -37.96,-86.76zm395.83 -336.19l0 281.97 2.72 0c18.97,-32.54 43.37,-54.23 73.2,-67.78 29.82,-13.56 56.93,-21.69 86.76,-21.69 40.66,0 73.2,5.42 97.6,16.27 24.4,10.84 46.09,27.11 59.65,46.09 13.55,18.97 24.4,43.37 29.82,70.49 5.42,27.11 8.13,56.96 8.13,92.18l0 333.47 -149.11 0 0 -306.36c0,-46.09 -8.14,-78.63 -21.69,-100.32 -13.56,-21.69 -37.96,-32.53 -73.2,-32.53 -40.67,0 -70.5,13.56 -86.76,35.27 -18.98,24.38 -27.12,65.04 -27.12,119.27l0 284.67 -149.11 0 0 -751 149.11 0zm466.33 287.39c16.27,-24.4 35.24,-40.67 59.64,-56.96 24.4,-13.56 51.52,-24.38 81.34,-29.83 29.82,-5.42 59.62,-8.13 89.47,-8.13 27.11,0 54.22,2.71 84.07,5.42 27.12,2.71 54.23,10.82 75.89,21.69 24.4,10.82 40.67,27.11 56.96,46.09 13.53,19.01 21.66,46.12 21.66,78.65l0 284.68c0,24.4 2.71,48.8 5.43,70.52 2.73,21.69 10.81,40.66 18.97,51.48l-151.82 0c-5.45,-5.42 -8.16,-16.27 -10.85,-24.37 -2.71,-8.16 -2.71,-18.98 -2.71,-27.11 -24.4,24.37 -51.51,40.66 -84.05,51.48 -32.53,10.85 -65.06,13.56 -97.6,13.56 -27.11,0 -48.8,-2.71 -73.2,-10.82 -21.69,-5.42 -40.67,-16.29 -59.65,-29.85 -16.26,-13.56 -29.82,-29.82 -40.66,-51.48 -8.14,-21.72 -13.56,-43.41 -13.56,-73.24 0,-29.85 5.42,-56.96 16.27,-75.91 10.84,-18.98 24.4,-35.24 40.67,-48.8 16.26,-10.82 37.95,-21.69 59.64,-27.11 21.69,-5.4 43.38,-10.82 67.78,-13.56l65.07 -8.13c21.69,-2.71 40.67,-5.42 56.93,-8.13 16.27,-5.43 29.83,-10.85 40.67,-18.98 10.85,-8.13 13.56,-18.98 13.56,-35.25 0,-16.27 -2.71,-29.82 -8.14,-37.95 -5.42,-8.14 -13.55,-16.27 -21.69,-21.69 -8.16,-5.43 -18.97,-8.14 -29.82,-10.82 -10.84,-2.74 -24.4,-2.74 -37.95,-2.74 -29.83,0 -51.52,5.42 -67.79,18.98 -16.26,13.55 -27.11,35.24 -29.82,62.36l-149.11 0c0,-32.54 10.84,-62.36 24.4,-84.05zm295.49 211.47c-8.11,2.71 -18.95,5.42 -29.82,8.14 -10.85,2.73 -21.69,2.73 -35.25,5.42 -10.82,2.71 -24.37,2.71 -35.24,5.42l-32.54 8.13c-10.84,2.71 -21.69,8.14 -27.11,13.56 -8.13,5.42 -13.55,13.56 -18.98,21.69 -8.11,10.84 -8.11,21.69 -8.11,35.24 0,13.56 2.72,24.4 8.14,32.54 5.42,8.13 10.84,16.29 18.98,21.69 8.13,5.42 18.97,8.16 29.82,10.84 10.85,2.69 21.66,2.71 35.22,2.71 29.85,0 51.51,-5.39 67.78,-13.55 16.29,-10.82 27.11,-21.69 35.27,-35.25 8.13,-13.55 13.56,-27.11 13.56,-40.67 2.71,-13.55 2.71,-24.37 2.71,-32.53l0 -56.93c-8.14,5.42 -16.27,10.87 -24.43,13.55zm398.6 -292.81l0 75.92 2.71 0c18.95,-32.54 43.38,-54.23 73.18,-67.78 29.84,-13.56 62.39,-21.69 92.18,-21.69 40.67,0 73.18,5.42 97.61,16.27 27.09,10.84 46.11,27.11 59.66,46.09 13.55,18.97 24.37,43.37 32.52,70.49 5.42,27.11 8.15,56.96 8.15,92.18l0 333.47 -149.12 0 0 -306.36c0,-46.09 -8.15,-78.63 -21.73,-100.32 -13.54,-21.69 -37.94,-35.24 -75.91,-35.24 -40.66,0 -70.5,16.27 -89.46,40.67 -18.97,24.4 -27.11,65.07 -27.11,119.29l0 284.67 -149.11 0 0 -547.66 146.43 0zm699.43 97.61c-24.36,0 -43.39,5.42 -59.61,16.29 -16.27,10.82 -29.84,24.37 -40.69,43.38 -10.82,16.27 -16.25,35.25 -21.7,56.94 -5.39,21.71 -5.39,40.66 -5.39,62.38 0,18.95 2.7,40.67 5.39,59.62 5.45,21.71 10.85,37.95 21.7,54.22 10.85,16.29 21.7,29.85 37.97,40.67 16.27,10.84 35.21,16.29 59.61,16.29 35.29,0 62.39,-10.84 84.06,-29.85 18.99,-18.95 32.57,-46.06 35.27,-81.33l143.69 0c-10.82,73.2 -37.94,127.42 -84.08,165.41 -46.07,37.93 -105.71,56.93 -178.94,56.93 -40.67,0 -78.61,-8.13 -111.15,-21.69 -35.27,-13.55 -62.39,-32.53 -86.76,-56.93 -24.37,-24.4 -43.39,-54.23 -56.97,-86.76 -13.54,-35.25 -18.94,-70.52 -18.94,-111.19 0,-43.37 5.4,-81.33 18.94,-116.58 13.58,-35.24 29.85,-67.78 54.24,-94.89 24.4,-27.11 54.22,-46.09 86.79,-62.36 35.21,-13.55 73.16,-21.68 116.55,-21.68 32.54,0 62.39,5.42 92.18,13.55 29.79,8.13 56.94,21.69 78.61,37.93 24.42,16.29 43.39,37.96 56.93,65.07 13.58,24.4 21.73,56.93 24.42,92.18l-146.42 0c-5.34,-65.07 -40.61,-97.6 -105.7,-97.6zm-2494.26 -252.14l303.65 0 0 73.2 -303.65 0 0 -73.2zm2979.59 569.34c21.72,21.7 56.94,32.54 97.6,32.54 29.85,0 56.97,-8.14 78.64,-21.69 21.69,-16.3 35.27,-32.54 40.66,-48.83l130.15 0c-21.72,65.07 -54.21,111.19 -97.63,140.98 -43.39,27.11 -94.88,43.41 -157.24,43.41 -43.39,0 -81.33,-8.16 -116.6,-21.72 -33.39,-12.44 -63.16,-32.92 -86.73,-59.62 -24.42,-24.4 -43.39,-54.22 -54.24,-89.49 -13.55,-35.25 -18.97,-73.18 -18.97,-116.58 0,-40.67 5.42,-78.6 18.97,-113.87 13.07,-34.01 32.38,-65.26 56.94,-92.16 24.39,-24.4 54.24,-46.09 86.75,-59.64 35.25,-13.56 73.21,-21.69 113.88,-21.69 46.06,0 86.73,8.13 119.3,27.11 35.22,18.98 62.31,40.67 84.03,73.2 21.7,29.82 37.97,65.04 48.82,103.03 10.79,37.93 13.54,78.59 10.82,122l-393.15 0c0,40.67 16.3,81.33 38,103.02zm173.51 -284.67c-18.97,-18.98 -48.81,-29.82 -84.06,-29.82 -24.39,0 -43.39,5.39 -59.66,13.55 -16.27,8.14 -29.82,18.95 -37.91,29.83 -8.13,10.87 -16.3,24.4 -19,37.95 -2.67,13.56 -5.4,24.38 -5.4,35.25l244.03 0c-8.18,-40.67 -21.73,-67.78 -38,-86.76z"/>
   </g>
  </g>
  <polygon class="fil1" points="-6.44,773.11 4127.66,773.11 4127.66,5.83 -6.44,5.83 "/>
 </g>
</svg>
