<?xml version="1.0" encoding="UTF-8"?>
<!DOCTYPE svg PUBLIC "-//W3C//DTD SVG 1.1//EN" "http://www.w3.org/Graphics/SVG/1.1/DTD/svg11.dtd">
<!-- Creator: CorelDRAW -->
<svg xmlns="http://www.w3.org/2000/svg" xml:space="preserve" width="36.1904mm" height="7.6728mm" version="1.1" style="shape-rendering:geometricPrecision; text-rendering:geometricPrecision; image-rendering:optimizeQuality; fill-rule:evenodd; clip-rule:evenodd"
viewBox="0 0 3619.04 767.28"
 xmlns:xlink="http://www.w3.org/1999/xlink"
 xmlns:xodm="http://www.corel.com/coreldraw/odm/2003">
 <defs>
  <style type="text/css">
   <![CDATA[
    .fil0 {fill:#00CCFF;fill-rule:nonzero}
   ]]>
  </style>
 </defs>
 <g id="Camada_x0020_1">
  <metadata id="CorelCorpID_0Corel-Layer"/>
  <g id="agency-supports-logo-3.svg">
   <path class="fil0" d="M1325.96 543.43c-83.38,0 -150.96,-69.08 -150.96,-154.3 0,-85.22 67.58,-154.3 150.97,-154.3 83.37,0 150.95,69.08 150.95,154.3 0,85.22 -67.59,154.3 -150.96,154.3zm151.44 19.57c0,14.13 24.22,53.82 53.89,53.82l19.21 0c7.45,0 13.54,-6.09 13.54,-13.54l0 -422.27 -0.07 0c-0.19,-3.45 -1.69,-6.7 -4.19,-9.08 -2.5,-2.38 -5.82,-3.72 -9.28,-3.73l-59.54 0c-7.2,0 -13.09,5.7 -13.49,12.81l-0.07 0 0 34.32c-36.47,-44.93 -93.99,-63.58 -151.67,-63.58 -131.11,0 -237.37,106.27 -237.37,237.39 0,131.11 106.26,237.39 237.37,237.39 57.68,0 120.54,-22.38 151.67,-63.58l0 0.07 0 -0.02zm228.9 -60.47c39.74,27.53 83.13,40.9 124.82,40.9 39.73,0 80.78,-20.6 80.78,-56.44 0,-47.83 -89.48,-55.28 -145.68,-74.39 -56.24,-19.1 -104.67,-58.61 -104.67,-122.58 0,-97.86 87.21,-138.28 168.61,-138.28 51.57,0 104.78,16.99 139.28,41.37 11.89,8.99 4.65,19.34 4.65,19.34l-32.93 47.03c-3.7,5.29 -11.37,9.52 -19.47,4.14 -22.19,-14.67 -46.89,-28.8 -91.54,-28.8 -55.26,0 -79.56,22.94 -79.56,51.36 0,34.1 38.87,44.81 84.41,56.44 79.36,21.37 165.94,47.1 165.94,144.38 0,86.24 -80.67,139.53 -169.82,139.53 -67.55,0 -125.07,-19.26 -173.32,-54.66 -10.04,-10.06 -3.02,-19.4 -3.02,-19.4l32.76 -46.79c6.67,-8.75 15.08,-5.69 18.76,-3.15zm741.17 60.48c0,14.12 24.2,53.81 53.86,53.81l19.23 0c7.45,0 13.54,-6.09 13.54,-13.54l0 -422.27 -0.07 0c-0.2,-3.45 -1.7,-6.7 -4.2,-9.08 -2.5,-2.38 -5.82,-3.71 -9.27,-3.73l-59.54 0c-7.22,0 -13.09,5.7 -13.48,12.81l-0.07 0 0 34.32c-36.48,-44.93 -94,-63.58 -151.68,-63.58 -131.1,0 -237.39,106.27 -237.39,237.38 0,131.1 106.29,237.39 237.39,237.39 57.68,0 120.53,-22.38 151.67,-63.58l0 0.07 0.01 0zm-151.45 -19.57c-83.38,0 -150.97,-69.09 -150.97,-154.31 0,-85.22 67.59,-154.3 150.97,-154.3 83.37,0 150.96,69.08 150.96,154.3 0,85.22 -67.59,154.3 -150.96,154.3l0 0.01zm771.54 34.08l-0.03 -218.5c0,-123.17 -77.7,-206.27 -201.61,-206.27 -59.16,0 -107.53,34.21 -124.67,63.59l0 -0.41 -0.11 0.33c-0.02,-29.72 -24.15,-47.04 -53.87,-47.04l-19.12 0c-7.47,0 -13.55,6.11 -13.55,13.56l0 422.28 0.08 0c0.4,7.12 6.27,12.82 13.47,12.82l59.55 0c0.9,0 1.8,-0.11 2.68,-0.27 0.37,-0.08 0.74,-0.24 1.13,-0.35 0.45,-0.13 0.9,-0.24 1.33,-0.42 0.53,-0.21 1,-0.51 1.5,-0.79 0.24,-0.15 0.51,-0.24 0.75,-0.39 0.58,-0.4 1.13,-0.85 1.64,-1.33 0.1,-0.09 0.21,-0.15 0.29,-0.23 2.48,-2.37 3.97,-5.6 4.15,-9.04l0.08 0 0 -249.43c0,-66.15 53.63,-119.79 119.8,-119.79 66.15,0 119.78,53.64 119.78,119.79l0.05 208.51 0 -0.08c0,0.18 0.06,0.38 0.06,0.57l0 40.43 0.08 0c0.39,7.12 6.27,12.82 13.46,12.82l59.53 0c0.93,0 1.8,-0.11 2.68,-0.27 0.34,-0.08 0.68,-0.22 1,-0.3 0.5,-0.15 1.01,-0.28 1.48,-0.47 0.48,-0.2 0.93,-0.48 1.38,-0.74 0.29,-0.15 0.58,-0.26 0.85,-0.44 0.55,-0.38 1.05,-0.8 1.56,-1.24 0.13,-0.1 0.26,-0.2 0.39,-0.32 0.56,-0.54 1.04,-1.13 1.51,-1.74 1.56,-2.11 2.49,-4.63 2.62,-7.26l0.03 -0.04 0.05 0 0 -27.54zm464.34 -14.51c0,14.12 24.19,53.81 53.87,53.81l19.21 0c7.44,0 13.55,-6.09 13.55,-13.54l0 -422.27 -0.05 0c-0.22,-3.45 -1.72,-6.7 -4.21,-9.08 -2.51,-2.38 -5.82,-3.71 -9.29,-3.73l-59.53 0c-3.47,0.01 -6.77,1.34 -9.29,3.73 -2.51,2.38 -3.99,5.63 -4.18,9.08l-0.08 0 0 34.32c-36.51,-44.93 -94,-63.58 -151.71,-63.58 -131.07,0 -237.36,106.27 -237.36,237.38 0,131.1 106.29,237.39 237.36,237.39 57.71,0 120.55,-22.38 151.69,-63.58l0.02 0.07zm-151.44 -19.57c-83.4,0 -150.97,-69.09 -150.97,-154.31 0,-85.22 67.57,-154.3 150.97,-154.3 83.34,0 150.94,69.08 150.94,154.3 0,85.22 -67.6,154.3 -150.94,154.3l0 0.01z"/>
   <path class="fil0" d="M649.07 411.7c-99.72,0 -180.55,80.82 -180.55,180.53 0,99.71 80.83,180.55 180.55,180.55 99.7,0 180.53,-80.84 180.53,-180.55 0,-99.71 -80.83,-180.53 -180.53,-180.53zm-469.06 0.01c-99.7,0.01 -180.53,80.81 -180.53,180.53 0,99.7 80.83,180.54 180.53,180.54 99.72,0 180.55,-80.84 180.55,-180.54 0,-99.72 -80.83,-180.53 -180.55,-180.53zm415.06 -225.68c0,99.7 -80.82,180.55 -180.52,180.55 -99.73,0 -180.55,-80.85 -180.55,-180.55 0,-99.71 80.82,-180.54 180.55,-180.54 99.7,0 180.52,80.83 180.52,180.54l0 0z"/>
  </g>
 </g>
</svg>
