<?xml version="1.0" encoding="UTF-8"?>
<!DOCTYPE svg PUBLIC "-//W3C//DTD SVG 1.1//EN" "http://www.w3.org/Graphics/SVG/1.1/DTD/svg11.dtd">
<!-- Creator: CorelDRAW -->
<svg xmlns="http://www.w3.org/2000/svg" xml:space="preserve" width="35.8882mm" height="35.958mm" version="1.1" style="shape-rendering:geometricPrecision; text-rendering:geometricPrecision; image-rendering:optimizeQuality; fill-rule:evenodd; clip-rule:evenodd"
viewBox="0 0 3588.82 3595.8"
 xmlns:xlink="http://www.w3.org/1999/xlink"
 xmlns:xodm="http://www.corel.com/coreldraw/odm/2003">
 <defs>
  <style type="text/css">
   <![CDATA[
    .fil2 {fill:none}
    .fil0 {fill:#00CCFF}
    .fil1 {fill:#00CCFF;fill-rule:nonzero}
   ]]>
  </style>
   <clipPath id="id0">
    <path d="M277.76 2187.03l3032.28 0 0 -767.28 -3032.28 0 0 767.28z"/>
   </clipPath>
 </defs>
 <g id="Camada_x0020_1">
  <metadata id="CorelCorpID_0Corel-Layer"/>
  <g>
  </g>
  <g style="clip-path:url(#id0)">
   <g id="_2152778534176">
    <path class="fil0" d="M1247.85 2023.89l37.84 -87.94c40.87,30.57 95.33,46.46 149.07,46.46 39.66,0 64.77,-15.28 64.77,-38.45 -0.61,-64.77 -237.62,-14.07 -239.43,-176.48 -0.61,-82.48 72.65,-146.03 176.48,-146.03 61.73,0 123.35,15.28 167.38,50.09l-35.42 89.75c-40.27,-25.71 -90.36,-44.02 -138.03,-44.02 -32.38,0 -53.73,15.28 -53.73,34.81 0.61,63.55 239.43,28.74 241.85,183.87 0,84.3 -71.44,143.61 -174.05,143.61 -75.2,-0.12 -144.21,-17.83 -196.73,-55.67zm1453.19 -119.71c-18.92,32.99 -54.34,55.55 -95.33,55.55 -60.53,0 -109.29,-48.88 -109.29,-109.29 0,-60.4 48.88,-109.28 109.29,-109.28 40.87,0 76.41,22.56 95.33,55.55l104.43 -57.98c-39.05,-69.62 -114.25,-117.28 -199.76,-117.28 -126.51,0 -229.12,102.61 -229.12,229.12 0,126.5 102.61,229.12 229.12,229.12 86.11,0 160.71,-47.06 199.76,-117.29l-104.43 -58.22zm-1029.89 -472.8l130.76 0 0 639.57 -130.76 0 0 -639.57zm1185.63 0l0 639.57 130.75 0 0 -191.88 155.13 191.88 167.4 0 -197.35 -227.9 182.66 -212.63 -160.09 0 -147.88 176.48 0 -375.52 -130.62 0z"/>
    <path class="fil1" d="M2190.41 1905.39c-18.92,31.18 -57.98,54.34 -102.01,54.34 -60.52,0 -109.28,-48.88 -109.28,-109.28 0,-60.4 48.88,-109.28 109.28,-109.28 44.03,0 83.09,24.38 102.01,56.16l0 108.06zm0 -274.84l0 51.91c-21.35,-36.02 -74.47,-61.13 -130.15,-61.13 -114.86,0 -205.22,101.4 -205.22,228.52 0,127.11 90.36,229.72 205.22,229.72 55.55,0 108.68,-24.98 130.15,-61.13l0 51.91 130.75 0 0 -439.8 -130.75 0z"/>
    <path class="fil0" d="M439.68 1904.78c0,44.64 -36.02,80.66 -80.66,80.66 -44.63,0 -80.66,-36.15 -80.66,-80.66 0,-44.51 36.03,-80.66 80.66,-80.66l80.66 0 0 80.66zm40.27 0c0,-44.63 36.02,-80.66 80.66,-80.66 44.63,0 80.66,36.03 80.66,80.66l0 201.59c0,44.63 -36.03,80.66 -80.66,80.66 -44.64,0 -80.66,-36.03 -80.66,-80.66l0 -201.59z"/>
    <path class="fil0" d="M560.61 1581.06c-44.64,0 -80.66,-36.02 -80.66,-80.66 0,-44.64 36.02,-80.66 80.66,-80.66 44.63,0 80.66,36.02 80.66,80.66l0 80.66 -80.66 0zm0 40.87c44.63,0 80.66,36.03 80.66,80.66 0,44.64 -36.03,80.66 -80.66,80.66l-202.2 0c-44.63,0 -80.65,-36.14 -80.65,-80.66 0,-44.51 36.02,-80.66 80.65,-80.66l202.2 0z"/>
    <path class="fil0" d="M883.73 1702.59c0,-44.63 36.02,-80.66 80.66,-80.66 44.64,0 80.66,36.03 80.66,80.66 0,44.64 -36.02,80.66 -80.66,80.66l-80.66 0 0 -80.66zm-40.27 0c0,44.64 -36.02,80.66 -80.66,80.66 -44.63,0 -80.66,-36.02 -80.66,-80.66l0 -202.19c0,-44.64 36.03,-80.66 80.66,-80.66 44.64,0 80.66,36.02 80.66,80.66l0 202.19z"/>
    <path class="fil0" d="M762.8 2025.71c44.64,0 80.66,36.02 80.66,80.66 0,44.63 -36.02,80.66 -80.66,80.66 -44.63,0 -80.66,-36.03 -80.66,-80.66l0 -80.66 80.66 0zm0 -40.27c-44.63,0 -80.66,-36.02 -80.66,-80.66 0,-44.63 36.03,-80.66 80.66,-80.66l202.2 0c44.63,0 80.65,36.03 80.65,80.66 0,44.64 -36.02,80.66 -80.65,80.66l-202.2 0z"/>
   </g>
  </g>
  <polygon class="fil2" points="277.76,2187.03 3310.04,2187.03 3310.04,1419.75 277.76,1419.75 "/>
 </g>
</svg>
