<?xml version="1.0" encoding="UTF-8"?>
<!DOCTYPE svg PUBLIC "-//W3C//DTD SVG 1.1//EN" "http://www.w3.org/Graphics/SVG/1.1/DTD/svg11.dtd">
<!-- Creator: CorelDRAW -->
<svg xmlns="http://www.w3.org/2000/svg" xml:space="preserve" width="25.4406mm" height="7.6728mm" version="1.1" style="shape-rendering:geometricPrecision; text-rendering:geometricPrecision; image-rendering:optimizeQuality; fill-rule:evenodd; clip-rule:evenodd"
viewBox="0 0 2544.06 767.28"
 xmlns:xlink="http://www.w3.org/1999/xlink"
 xmlns:xodm="http://www.corel.com/coreldraw/odm/2003">
 <defs>
  <style type="text/css">
   <![CDATA[
    .fil1 {fill:none}
    .fil0 {fill:#00CCFF;fill-rule:nonzero}
   ]]>
  </style>
   <clipPath id="id0">
    <path d="M-2.98 773.11l2544.06 0 0 -767.28 -2544.06 0 0 767.28z"/>
   </clipPath>
 </defs>
 <g id="Camada_x0020_1">
  <metadata id="CorelCorpID_0Corel-Layer"/>
  <g>
  </g>
  <g style="clip-path:url(#id0)">
   <g id="_2152788624752">
    <path class="fil0" d="M2329.62 373.61l-90.01 0c-57.95,0 -88.99,43.39 -88.99,115.71l0 261.41 -170.72 0 0 -377.15 -72.45 0c-57.94,0 -88.96,43.4 -88.96,115.71l0 261.41 -170.74 0 0 -516.58 170.74 0 0 78.53c27.95,-60.96 66.23,-78.53 123.16,-78.53l209 0 0 78.53c27.95,-60.96 66.23,-78.53 123.15,-78.53l55.85 0 -0.03 139.49zm-719.13 159.1l-355.94 0c9.31,57.87 45.52,90.93 106.56,90.93 45.52,0 77.61,-18.61 87.97,-51.65l151.05 42.34c-37.23,89.89 -129.34,144.66 -239.02,144.66 -185.22,0 -270.07,-143.63 -270.07,-266.55 0,-120.88 74.5,-265.53 259.71,-265.53 196.6,0 261.78,146.7 261.78,255.2 0.13,16.89 -0.55,33.78 -2.04,50.6zm-165.55 -100.21c-4.15,-44.44 -36.24,-85.74 -94.16,-85.74 -53.83,0 -85.87,23.73 -96.23,85.74l190.39 0zm-651.86 318.2l150.01 0 187.28 -516.53 -171.74 0 -91.06 300.61 -93.13 -300.63 -170.74 0 189.38 516.55zm-699.47 0l169.7 0 0 -377.09 161.46 0 0 377.12 168.65 0 0 -516.58 -330.11 0 0 -32.02c0,-35.13 24.83,-56.82 64.16,-56.82l97.27 0 0 -139.49 -125.2 0c-123.15,0 -205.93,75.44 -205.93,185.95l0 42.38 -96.22 0 0 139.49 96.22 0 0 377.06z"/>
    <path class="fil0" d="M2435.18 766.19c58.29,0 105.54,-47.19 105.54,-105.4 0,-58.21 -47.25,-105.38 -105.54,-105.38 -58.28,0 -105.56,47.2 -105.56,105.41 0,58.21 47.28,105.37 105.56,105.37z"/>
   </g>
  </g>
  <polygon class="fil1" points="-2.98,773.11 2541.08,773.11 2541.08,5.83 -2.98,5.83 "/>
 </g>
</svg>
