<?xml version="1.0" encoding="UTF-8"?>
<!DOCTYPE svg PUBLIC "-//W3C//DTD SVG 1.1//EN" "http://www.w3.org/Graphics/SVG/1.1/DTD/svg11.dtd">
<!-- Creator: CorelDRAW -->
<svg xmlns="http://www.w3.org/2000/svg" xml:space="preserve" width="5.969mm" height="6.35mm" version="1.1" style="shape-rendering:geometricPrecision; text-rendering:geometricPrecision; image-rendering:optimizeQuality; fill-rule:evenodd; clip-rule:evenodd"
viewBox="0 0 596.9 635"
 xmlns:xlink="http://www.w3.org/1999/xlink"
 xmlns:xodm="http://www.corel.com/coreldraw/odm/2003">
 <defs>
  <style type="text/css">
   <![CDATA[
    .fil0 {fill:#00CCFF;fill-rule:nonzero}
   ]]>
  </style>
 </defs>
 <g id="Camada_x0020_1">
  <metadata id="CorelCorpID_0Corel-Layer"/>
  <path id="asterisk-icon.svg" class="fil0" d="M578.37 393.27l-188.94 -73.93 190.58 -73.94c9.86,-3.28 16.43,-14.78 14.79,-24.64 -3.29,-21.36 -13.14,-41.07 -24.65,-59.15 -9.85,-19.71 -23,-36.14 -39.42,-50.93 -8.22,-6.57 -19.72,-6.57 -27.93,0l-159.37 128.15 32.86 -202.08c3.28,-11.5 -3.28,-21.36 -13.14,-24.64 -19.72,-8.22 -42.72,-11.5 -64.08,-9.86 -21.36,-1.64 -44.36,1.64 -64.07,9.86 -9.86,3.28 -16.43,14.78 -13.15,24.64l32.86 202.08 -159.36 -128.15c-8.22,-8.21 -19.72,-8.21 -27.93,0 -16.43,13.15 -29.57,31.22 -39.43,50.93 -13.14,18.08 -21.36,37.79 -26.29,59.15 -1.64,11.5 4.93,21.36 14.79,24.64l187.29 73.94 -190.58 73.93c-9.86,3.28 -16.43,14.78 -14.78,24.64 3.28,21.36 11.5,41.08 24.64,59.15 9.86,19.71 23,36.14 39.43,50.93 8.22,6.57 19.72,6.57 27.93,0l159.36 -128.15 -32.85 202.08c-3.29,11.5 3.28,21.36 13.14,26.29 21.36,6.57 42.72,9.85 64.07,8.21 21.36,1.64 44.36,-1.64 64.08,-8.21 9.86,-3.29 16.43,-14.79 13.14,-26.29l-32.86 -202.08 159.37 128.15c8.21,6.57 19.71,6.57 29.57,0 16.43,-13.15 29.57,-29.57 39.43,-49.29 13.14,-18.07 21.36,-37.79 26.29,-59.15 1.64,-13.14 -3.29,-23 -14.79,-26.28z"/>
 </g>
</svg>
