<?xml version="1.0" encoding="UTF-8"?>
<!DOCTYPE svg PUBLIC "-//W3C//DTD SVG 1.1//EN" "http://www.w3.org/Graphics/SVG/1.1/DTD/svg11.dtd">
<!-- Creator: CorelDRAW -->
<svg xmlns="http://www.w3.org/2000/svg" xml:space="preserve" width="40.0388mm" height="9.525mm" version="1.1" style="shape-rendering:geometricPrecision; text-rendering:geometricPrecision; image-rendering:optimizeQuality; fill-rule:evenodd; clip-rule:evenodd"
viewBox="0 0 4003.88 952.5"
 xmlns:xlink="http://www.w3.org/1999/xlink"
 xmlns:xodm="http://www.corel.com/coreldraw/odm/2003">
 <defs>
  <style type="text/css">
   <![CDATA[
    .fil1 {fill:#00CCFF}
    .fil0 {fill:#00CCFF;fill-rule:nonzero}
   ]]>
  </style>
 </defs>
 <g id="Camada_x0020_1">
  <metadata id="CorelCorpID_0Corel-Layer"/>
  <g id="company-logo-1.svg">
   <polygon class="fil0" points="1169.85,636.05 1456.33,636.05 1456.33,549.3 1271.68,549.3 1271.68,222.56 1169.85,222.56 "/>
   <path class="fil0" d="M1626.07 578.21c-40.85,0 -62.13,-35.85 -62.13,-89.63 0,-53.78 21.28,-90.22 62.13,-90.22 40.84,0 62.7,36.44 62.7,90.22 0,53.78 -21.86,89.63 -62.7,89.63zm0.57 67.09c94.92,0 157.05,-67.67 157.05,-156.72 0,-89.06 -62.13,-156.72 -157.05,-156.72 -94.34,0 -157.62,67.66 -157.62,156.72 0,89.05 63.28,156.72 157.62,156.72z"/>
   <path class="fil0" d="M1948 738.41c43.72,0 82.26,-9.83 108.15,-32.96 23.58,-21.4 39.11,-53.78 39.11,-98.31l0 -267.18 -89.74 0 0 31.81 -1.15 0c-17.26,-24.87 -43.72,-40.48 -82.84,-40.48 -73.05,0 -123.68,61.3 -123.68,148.04 0,90.8 61.56,140.53 127.71,140.53 35.67,0 58.1,-14.46 75.36,-34.12l2.3 0 0 29.49c0,35.86 -16.68,56.68 -56.37,56.68 -31.07,0 -46.6,-13.3 -51.78,-28.92l-90.89 0c9.2,61.88 62.7,95.42 143.82,95.42zm-0.58 -188.52c-35.09,0 -58.1,-28.92 -58.1,-73.45 0,-45.1 23.01,-74.02 58.1,-74.02 39.12,0 59.83,33.54 59.83,73.44 0,41.64 -18.99,74.03 -59.83,74.03z"/>
   <path class="fil0" d="M2279.78 578.21c-40.85,0 -62.13,-35.85 -62.13,-89.63 0,-53.78 21.28,-90.22 62.13,-90.22 40.84,0 62.7,36.44 62.7,90.22 0,53.78 -21.86,89.63 -62.7,89.63zm0.57 67.09c94.92,0 157.04,-67.67 157.04,-156.72 0,-89.06 -62.12,-156.72 -157.04,-156.72 -94.34,0 -157.62,67.66 -157.62,156.72 0,89.05 63.28,156.72 157.62,156.72z"/>
   <path class="fil0" d="M2464.79 636.05l93.76 0 0 -296.09 -93.76 0 0 296.09zm0 -337.15l93.76 0 0 -76.34 -93.76 0 0 76.34z"/>
   <path class="fil0" d="M2599.24 733.79l93.77 0 0 -128.39 1.13 0c18.42,24.87 45.46,39.91 83.43,39.91 77.1,0 128.29,-61.3 128.29,-157.3 0,-89.06 -47.75,-156.72 -125.99,-156.72 -40.27,0 -69.03,17.93 -89.17,44.53l-1.72 0 0 -35.86 -89.74 0 0 393.83zm154.17 -161.35c-40.27,0 -63.29,-32.96 -63.29,-80.96 0,-48 20.72,-84.43 61.57,-84.43 40.27,0 59.24,33.54 59.24,84.43 0,50.31 -21.85,80.96 -57.52,80.96z"/>
   <path class="fil0" d="M3058.5 645.31c77.07,0 134.04,-33.54 134.04,-98.31 0,-75.76 -60.99,-89.06 -112.77,-97.74 -37.38,-6.94 -70.75,-9.83 -70.75,-30.65 0,-18.5 17.84,-27.18 40.86,-27.18 25.87,0 43.7,8.1 47.14,34.7l86.31 0c-4.6,-58.41 -49.48,-94.84 -132.9,-94.84 -69.61,0 -127.13,32.38 -127.13,94.84 0,69.4 54.66,83.28 105.86,91.95 39.1,6.94 74.77,9.83 74.77,36.43 0,19.09 -17.83,29.5 -46.01,29.5 -31.06,0 -50.62,-14.46 -54.08,-43.95l-88.58 0c2.88,65.34 56.93,105.25 143.24,105.25z"/>
   <path class="fil0" d="M3319.91 644.74c40.85,0 66.73,-16.2 88.03,-45.11l1.72 0 0 36.43 89.74 0 0 -296.09 -93.77 0 0 165.4c0,35.27 -19.55,59.56 -51.77,59.56 -29.9,0 -44.3,-17.93 -44.3,-50.31l0 -174.65 -93.18 0 0 194.31c0,65.93 35.66,110.46 103.53,110.46z"/>
   <path class="fil0" d="M3540.2 636.05l93.77 0 0 -165.97c0,-35.28 17.25,-60.14 46.59,-60.14 28.18,0 41.44,18.5 41.44,50.31l0 175.8 93.76 0 0 -165.97c0,-35.28 16.67,-60.14 46.6,-60.14 28.18,0 41.4,18.5 41.4,50.31l0 175.8 93.77 0 0 -192.57c0,-66.51 -33.36,-112.19 -100.09,-112.19 -37.97,0 -69.61,16.19 -92.63,52.04l-1.14 0c-14.95,-31.8 -44.29,-52.04 -82.84,-52.04 -42.57,0 -70.75,20.24 -89.16,50.89l-1.72 0 0 -42.22 -89.75 0 0 296.09z"/>
   <path class="fil1" d="M467.4 956.73c261.64,0 473.75,-213.23 473.75,-476.25 0,-263.03 -212.11,-476.25 -473.75,-476.25 -261.65,0 -473.75,213.22 -473.75,476.25 0,263.02 212.1,476.25 473.75,476.25zm147.79 -730.64c7.19,-25.69 -17.61,-40.88 -40.25,-24.66l-316.16 226.41c-24.56,17.59 -20.69,52.64 5.81,52.64l83.25 0 0 -0.65 162.25 0 -132.2 46.9 -58.29 208.14c-7.19,25.69 17.61,40.88 40.26,24.66l316.15 -226.41c24.56,-17.59 20.7,-52.64 -5.8,-52.64l-126.25 0 71.23 -254.39z"/>
  </g>
 </g>
</svg>
