<?xml version="1.0" encoding="UTF-8"?>
<!DOCTYPE svg PUBLIC "-//W3C//DTD SVG 1.1//EN" "http://www.w3.org/Graphics/SVG/1.1/DTD/svg11.dtd">
<!-- Creator: CorelDRAW -->
<svg xmlns="http://www.w3.org/2000/svg" xml:space="preserve" width="39.5406mm" height="9.5248mm" version="1.1" style="shape-rendering:geometricPrecision; text-rendering:geometricPrecision; image-rendering:optimizeQuality; fill-rule:evenodd; clip-rule:evenodd"
viewBox="0 0 3954.06 952.48"
 xmlns:xlink="http://www.w3.org/1999/xlink"
 xmlns:xodm="http://www.corel.com/coreldraw/odm/2003">
 <defs>
  <style type="text/css">
   <![CDATA[
    .fil0 {fill:#00CCFF;fill-rule:nonzero}
   ]]>
  </style>
 </defs>
 <g id="Camada_x0020_1">
  <metadata id="CorelCorpID_0Corel-Layer"/>
  <g id="company-logo-2.svg">
   <polygon class="fil0" points="1155.04,636.35 1438.15,636.35 1438.15,550.62 1255.67,550.62 1255.67,227.73 1155.04,227.73 "/>
   <path class="fil0" d="M1605.9 579.19c-40.37,0 -61.4,-35.43 -61.4,-88.58 0,-53.15 21.03,-89.15 61.4,-89.15 40.36,0 61.96,36 61.96,89.15 0,53.15 -21.6,88.58 -61.96,88.58zm0.56 66.29c93.81,0 155.2,-66.86 155.2,-154.87 0,-88.01 -61.39,-154.88 -155.2,-154.88 -93.23,0 -155.76,66.87 -155.76,154.88 0,88.01 62.53,154.87 155.76,154.87z"/>
   <path class="fil0" d="M1924.03 737.49c43.2,0 81.29,-9.71 106.87,-32.57 23.31,-21.15 38.66,-53.15 38.66,-97.15l0 -264.03 -88.68 0 0 31.43 -1.14 0c-17.06,-24.57 -43.2,-40 -81.86,-40 -72.2,0 -122.23,60.57 -122.23,146.3 0,89.72 60.83,138.87 126.21,138.87 35.24,0 57.41,-14.29 74.47,-33.72l2.27 0 0 29.15c0,35.43 -16.48,56 -55.71,56 -30.7,0 -46.05,-13.14 -51.16,-28.57l-89.83 0c9.1,61.15 61.97,94.29 142.13,94.29zm-0.57 -186.3c-34.68,0 -57.42,-28.58 -57.42,-72.58 0,-44.58 22.74,-73.15 57.42,-73.15 38.66,0 59.12,33.14 59.12,72.58 0,41.15 -18.76,73.15 -59.12,73.15z"/>
   <path class="fil0" d="M2251.89 579.19c-40.36,0 -61.4,-35.43 -61.4,-88.58 0,-53.15 21.04,-89.15 61.4,-89.15 40.36,0 61.96,36 61.96,89.15 0,53.15 -21.6,88.58 -61.96,88.58zm0.57 66.29c93.8,0 155.18,-66.86 155.18,-154.87 0,-88.01 -61.38,-154.88 -155.18,-154.88 -93.23,0 -155.77,66.87 -155.77,154.88 0,88.01 62.54,154.87 155.77,154.87z"/>
   <path class="fil0" d="M2434.72 636.35l92.66 0 0 -292.61 -92.66 0 0 292.61zm0 -333.18l92.66 0 0 -75.44 -92.66 0 0 75.44z"/>
   <path class="fil0" d="M2567.59 732.92l92.65 0 0 -126.87 1.14 0c18.21,24.58 44.93,39.43 82.45,39.43 76.17,0 126.76,-60.57 126.76,-155.44 0,-88.01 -47.18,-154.87 -124.49,-154.87 -39.79,0 -68.21,17.71 -88.1,44l-1.72 0 0 -35.43 -88.69 0 0 389.18zm152.37 -159.44c-39.82,0 -62.55,-32.58 -62.55,-80.01 0,-47.44 20.48,-83.44 60.83,-83.44 39.79,0 58.55,33.15 58.55,83.44 0,49.72 -21.59,80.01 -56.83,80.01z"/>
   <path class="fil0" d="M3021.45 645.48c76.18,0 132.45,-33.14 132.45,-97.15 0,-74.86 -60.27,-88.01 -111.41,-96.58 -36.96,-6.86 -69.93,-9.72 -69.93,-30.29 0,-18.29 17.62,-26.86 40.35,-26.86 25.58,0 43.2,8 46.62,34.29l85.27 0c-4.55,-57.72 -48.89,-93.72 -131.31,-93.72 -68.79,0 -125.65,32 -125.65,93.72 0,68.58 54,82.29 104.62,90.87 38.65,6.86 73.89,9.71 73.89,36 0,18.86 -17.62,29.15 -45.48,29.15 -30.69,0 -50.03,-14.29 -53.44,-43.44l-87.55 0c2.85,64.58 56.3,104.01 141.57,104.01z"/>
   <path class="fil0" d="M3279.79 644.92c40.35,0 65.94,-16 86.97,-44.58l1.7 0 0 36.01 88.68 0 0 -292.61 -92.65 0 0 163.45c0,34.86 -19.34,58.86 -51.17,58.86 -29.56,0 -43.77,-17.71 -43.77,-49.72l0 -172.59 -92.1 0 0 192.02c0,65.15 35.24,109.16 102.34,109.16z"/>
   <path class="fil0" d="M3497.47 636.34l92.65 0 0 -164.02c0,-34.86 17.07,-59.43 46.04,-59.43 27.86,0 40.93,18.29 40.93,49.72l0 173.73 92.69 0 0 -164.02c0,-34.86 16.48,-59.43 46.03,-59.43 27.86,0 40.93,18.29 40.93,49.72l0 173.73 92.66 0 0 -190.31c0,-65.72 -32.97,-110.86 -98.9,-110.86 -37.52,0 -68.79,16 -91.55,51.43l-1.13 0c-14.77,-31.43 -43.77,-51.43 -81.87,-51.43 -42.06,0 -69.9,20 -88.1,50.29l-1.7 0 0 -41.72 -88.68 0 0 292.6z"/>
   <path class="fil0" d="M589.7 31.44l-93.16 -25.09 -78.51 294.54 -70.88 -265.91 -93.16 25.09 76.58 287.3 -190.74 -191.74 -68.2 68.56 209.22 210.32 -260.55 -70.18 -24.97 93.65 284.69 76.69c-3.26,-14.14 -4.98,-28.86 -4.98,-43.99 0,-107.1 86.36,-193.92 192.89,-193.92 106.54,0 192.9,86.82 192.9,193.92 0,15.03 -1.7,29.66 -4.92,43.71l258.73 69.7 24.96 -93.66 -285.82 -76.99 260.57 -70.19 -24.97 -93.65 -285.8 76.99 190.74 -191.75 -68.2 -68.56 -206.32 207.41 69.9 -262.25z"/>
   <path class="fil0" d="M655.65 535.52c-7.99,33.94 -24.85,64.44 -47.99,88.87l187.44 188.43 68.2 -68.56 -207.65 -208.74z"/>
   <path class="fil0" d="M605.76 626.36c-23.42,24.05 -53.01,41.99 -86.19,51.23l68.2 255.89 93.16 -25.1 -75.17 -282.02z"/>
   <path class="fil0" d="M516.09 678.51c-15.4,3.98 -31.54,6.09 -48.17,6.09 -17.81,0 -35.07,-2.43 -51.45,-6.97l-68.26 256.11 93.16 25.1 74.72 -280.33z"/>
   <path class="fil0" d="M413.18 676.75c-32.68,-9.71 -61.75,-27.88 -84.69,-51.99l-187.89 188.89 68.2 68.56 204.38 -205.46z"/>
   <path class="fil0" d="M326.95 623.03c-22.55,-24.26 -38.97,-54.35 -46.79,-87.77l-259.57 69.92 24.96 93.65 281.4 -75.8z"/>
  </g>
 </g>
</svg>
