<?xml version="1.0" encoding="UTF-8"?>
<!DOCTYPE svg PUBLIC "-//W3C//DTD SVG 1.1//EN" "http://www.w3.org/Graphics/SVG/1.1/DTD/svg11.dtd">
<!-- Creator: CorelDRAW -->
<svg xmlns="http://www.w3.org/2000/svg" xml:space="preserve" width="45.4546mm" height="13.2992mm" version="1.1" style="shape-rendering:geometricPrecision; text-rendering:geometricPrecision; image-rendering:optimizeQuality; fill-rule:evenodd; clip-rule:evenodd"
viewBox="0 0 4545.46 1329.92"
 xmlns:xlink="http://www.w3.org/1999/xlink"
 xmlns:xodm="http://www.corel.com/coreldraw/odm/2003">
 <defs>
  <style type="text/css">
   <![CDATA[
    .fil0 {fill:#00CCFF;fill-rule:nonzero}
   ]]>
  </style>
 </defs>
 <g id="Camada_x0020_1">
  <metadata id="CorelCorpID_0Corel-Layer"/>
  <g id="footer-logo.svg">
   <path class="fil0" d="M879.83 167.18l-261.14 -151.57c-21.26,-12.34 -56.05,-12.34 -77.31,0l-259.2 150.44 597.65 1.13z"/>
   <polygon class="fil0" points="464.28,1282.26 1164.22,514.13 1164.22,401.22 172.17,1112.71 "/>
   <path class="fil0" d="M961.92 214.8l-49.47 -28.71 -781.07 67.46 -96.88 56.23c-21.26,12.34 -38.66,42.63 -38.66,67.32l0 207.99 966.08 -370.29z"/>
   <path class="fil0" d="M491.7 1298.18l49.67 28.84c21.26,12.34 56.05,12.34 77.32,0l506.88 -294.19c21.26,-12.34 38.65,-42.63 38.65,-67.31l0 -286.65 -672.52 619.31z"/>
   <path class="fil0" d="M34.5 1032.82l14.13 8.2 1115.6 -660.28 0 -3.62c0,-24.68 -17.39,-54.97 -38.66,-67.31l-22.9 -13.29 -1106.83 315.95 0 353.04c0,24.68 17.4,54.97 38.66,67.31z"/>
   <path class="fil0" d="M1738.9 998.3c-31.22,0 -58.2,-5.02 -80.96,-15.08 -22.75,-10.05 -40.21,-24.34 -52.39,-42.86 -12.17,-19.05 -18.25,-41.54 -18.25,-67.47 0,-24.34 5.55,-45.77 16.67,-64.29 11.11,-19.05 28.04,-34.93 50.8,-47.63 23.28,-12.7 52.12,-21.69 86.52,-26.99l132.55 -21.43 0 87.32 -111.12 19.84c-16.94,3.17 -29.9,8.73 -38.9,16.67 -8.99,7.41 -13.49,18.25 -13.49,32.54 0,13.23 5.03,23.55 15.08,30.96 10.05,7.41 22.49,11.11 37.31,11.11 19.58,0 36.77,-4.23 51.59,-12.7 14.82,-8.47 26.19,-19.84 34.13,-34.13 8.47,-14.82 12.7,-30.96 12.7,-48.42l0 -112.71c0,-16.41 -6.61,-30.16 -19.84,-41.28 -12.7,-11.11 -30.16,-16.67 -52.39,-16.67 -21.17,0 -39.95,5.83 -56.36,17.47 -15.87,11.64 -27.51,26.98 -34.92,46.03l-95.25 -45.24c8.47,-24.34 21.96,-45.24 40.48,-62.71 18.52,-17.46 40.75,-30.95 66.68,-40.48 25.92,-9.52 54.24,-14.28 84.93,-14.28 36.51,0 68.79,6.61 96.83,19.84 28.05,13.23 49.75,31.75 65.09,55.56 15.88,23.29 23.81,50.54 23.81,81.76l0 285.75 -111.12 0 0 -69.85 26.99 -4.76c-12.7,19.05 -26.73,34.92 -42.07,47.62 -15.35,12.17 -32.55,21.17 -51.6,26.99 -19.05,6.35 -40.21,9.52 -63.5,9.52zm328.62 -9.52l0 -433.39 111.13 0 0 103.98 -7.94 -15.08c9.52,-36.51 25.14,-61.12 46.83,-73.82 22.23,-13.23 48.42,-19.84 78.58,-19.84l25.4 0 0 103.19 -37.3 0c-29.11,0 -52.66,8.99 -70.65,26.98 -17.99,17.47 -26.99,42.34 -26.99,74.62l0 233.36 -119.06 0zm530.44 4.76c-52.38,0 -93.13,-14.02 -122.23,-42.07 -28.58,-28.57 -42.87,-68.26 -42.87,-119.06l0 -173.83 -73.02 0 0 -103.19 3.97 0c22.22,0 39.16,-5.56 50.8,-16.67 12.17,-11.11 18.25,-27.78 18.25,-50l0 -31.75 119.07 0 0 98.42 101.59 0 0 103.19 -101.59 0 0 165.89c0,14.82 2.64,27.25 7.93,37.31 5.3,9.52 13.5,16.67 24.61,21.43 11.11,4.76 24.87,7.14 41.28,7.14 3.7,0 7.93,-0.26 12.7,-0.79 4.76,-0.53 9.78,-1.06 15.07,-1.59l0 100.81c-7.93,1.06 -16.93,2.11 -26.98,3.17 -10.05,1.06 -19.58,1.59 -28.58,1.59zm125.33 -4.76l0 -433.39 119.07 0 0 433.39 -119.07 0zm0 -472.28l0 -119.07 119.07 0 0 119.07 -119.07 0zm376.06 481.8c-47.63,0 -89.17,-11.11 -124.62,-33.33 -34.93,-22.76 -58.74,-53.19 -71.44,-91.29l87.31 -41.27c11.12,23.28 26.2,41.54 45.25,54.77 19.05,13.23 40.21,19.84 63.5,19.84 16.93,0 29.9,-3.44 38.89,-10.32 9,-6.88 13.49,-16.4 13.49,-28.57 0,-6.35 -1.58,-11.64 -4.76,-15.88 -3.17,-4.76 -7.94,-8.99 -14.29,-12.7 -6.35,-3.7 -14.28,-6.88 -23.81,-9.52l-73.82 -20.64c-35.45,-10.05 -62.7,-26.19 -81.75,-48.42 -19.05,-22.75 -28.58,-49.48 -28.58,-80.17 0,-26.98 6.88,-50.53 20.64,-70.64 13.76,-20.11 33.07,-35.72 57.94,-46.83 24.87,-11.64 53.45,-17.46 85.73,-17.46 42.33,0 79.37,10.05 111.12,30.16 32.28,19.58 55.04,47.36 68.27,83.34l-88.11 41.28c-6.35,-17.99 -17.99,-32.28 -34.93,-42.87 -16.4,-11.11 -35.18,-16.66 -56.35,-16.66 -15.35,0 -27.52,3.17 -36.51,9.52 -8.47,6.35 -12.7,15.08 -12.7,26.19 0,5.83 1.58,11.12 4.76,15.88 3.17,4.76 8.2,9 15.08,12.7 7.41,3.7 16.4,7.14 26.99,10.32l69.05 20.64c35.99,10.58 63.5,26.72 82.55,48.41 19.05,21.17 28.58,47.36 28.58,78.59 0,26.98 -7.15,50.53 -21.43,70.64 -13.76,20.11 -33.08,35.98 -57.95,47.62 -24.87,11.12 -54.24,16.67 -88.1,16.67zm447.38 -4.76c-52.39,0 -93.13,-14.02 -122.24,-42.07 -28.57,-28.57 -42.86,-68.26 -42.86,-119.06l0 -173.83 -73.02 0 0 -103.19 3.96 0c22.23,0 39.16,-5.56 50.8,-16.67 12.18,-11.11 18.26,-27.78 18.26,-50l0 -31.75 119.06 0 0 98.42 101.6 0 0 103.19 -101.6 0 0 165.89c0,14.82 2.65,27.25 7.94,37.31 5.29,9.52 13.49,16.67 24.61,21.43 11.11,4.76 24.87,7.14 41.27,7.14 3.71,0 7.94,-0.26 12.7,-0.79 4.76,-0.53 9.79,-1.06 15.08,-1.59l0 100.81c-7.93,1.06 -16.93,2.11 -26.98,3.17 -10.06,1.06 -19.58,1.59 -28.58,1.59zm125.33 -4.76l0 -433.39 119.07 0 0 433.39 -119.07 0zm0 -472.28l0 -119.07 119.07 0 0 119.07 -119.07 0zm418.92 481.8c-43.39,0 -82.55,-9.79 -117.48,-29.37 -34.39,-20.1 -61.91,-47.36 -82.55,-81.75 -20.1,-34.4 -30.16,-73.03 -30.16,-115.89 0,-42.86 10.06,-81.23 30.16,-115.09 20.11,-34.4 47.63,-61.39 82.55,-80.97 34.93,-19.58 74.09,-29.36 117.48,-29.36 32.28,0 62.18,5.55 89.69,16.66 27.52,11.12 51.07,26.73 70.65,46.84 19.58,19.57 33.6,42.86 42.07,69.85l-103.19 44.45c-7.41,-21.7 -20.11,-38.9 -38.1,-51.6 -17.46,-12.7 -37.84,-19.05 -61.12,-19.05 -20.64,0 -39.16,5.03 -55.56,15.08 -15.88,10.06 -28.58,24.08 -38.1,42.07 -9,17.99 -13.5,38.63 -13.5,61.91 0,23.29 4.5,43.93 13.5,61.92 9.52,17.99 22.22,32.01 38.1,42.07 16.4,10.05 34.92,15.08 55.56,15.08 23.81,0 44.45,-6.35 61.91,-19.05 17.46,-12.7 29.9,-29.9 37.31,-51.6l103.19 45.25c-7.94,25.4 -21.7,48.15 -41.28,68.26 -19.58,20.11 -43.13,35.98 -70.64,47.62 -27.52,11.12 -57.68,16.67 -90.49,16.67z"/>
   <polygon class="fil0" points="4422.24,988.78 4422.24,869.72 4541.3,869.72 4541.3,988.78 "/>
  </g>
 </g>
</svg>
