<?xml version="1.0" encoding="UTF-8"?>
<!DOCTYPE svg PUBLIC "-//W3C//DTD SVG 1.1//EN" "http://www.w3.org/Graphics/SVG/1.1/DTD/svg11.dtd">
<!-- Creator: CorelDRAW -->
<svg xmlns="http://www.w3.org/2000/svg" xml:space="preserve" width="3.704mm" height="3.704mm" version="1.1" style="shape-rendering:geometricPrecision; text-rendering:geometricPrecision; image-rendering:optimizeQuality; fill-rule:evenodd; clip-rule:evenodd"
viewBox="0 0 370.4 370.4"
 xmlns:xlink="http://www.w3.org/1999/xlink"
 xmlns:xodm="http://www.corel.com/coreldraw/odm/2003">
 <defs>
  <style type="text/css">
   <![CDATA[
    .fil1 {fill:none}
    .fil0 {fill:#00CCFF;fill-rule:nonzero}
   ]]>
  </style>
   <clipPath id="id0">
    <path d="M-4.8 374.3l370.4 0 0 -370.4 -370.4 0 0 370.4z"/>
   </clipPath>
 </defs>
 <g id="Camada_x0020_1">
  <metadata id="CorelCorpID_0Corel-Layer"/>
  <g>
  </g>
  <g style="clip-path:url(#id0)">
   <g id="_2152784891152">
    <path class="fil0" d="M39.64 7.2c-23.88,0 -43.31,19.43 -43.31,43.31 0,23.89 19.42,43.32 43.31,43.32 23.9,0 43.32,-19.43 43.32,-43.32 0,-23.88 -19.43,-43.31 -43.32,-43.31z"/>
    <path class="fil0" d="M179.84 7.2c-23.88,0 -43.31,19.43 -43.31,43.31 0,23.89 19.43,43.32 43.31,43.32 23.89,0 43.32,-19.43 43.32,-43.32 0,-23.88 -19.42,-43.31 -43.32,-43.31z"/>
    <path class="fil0" d="M322.29 93.83c23.88,0 43.31,-19.43 43.31,-43.31 0,-23.89 -19.41,-43.32 -43.31,-43.32 -23.9,0 -43.32,19.43 -43.32,43.31 0,23.89 19.44,43.32 43.32,43.32z"/>
    <path class="fil0" d="M38.51 232.64c23.89,0 43.32,-19.43 43.32,-43.32 0,-23.89 -19.43,-43.32 -43.32,-43.32 -23.88,0 -43.32,19.43 -43.32,43.32 0,23.89 19.44,43.32 43.32,43.32z"/>
    <path class="fil0" d="M178.71 232.64c23.88,0 43.31,-19.43 43.31,-43.32 0,-23.89 -19.42,-43.32 -43.31,-43.32 -23.9,0 -43.32,19.43 -43.32,43.32 0,23.89 19.43,43.32 43.32,43.32z"/>
    <path class="fil0" d="M321.17 232.64c23.89,0 43.31,-19.43 43.31,-43.32 0,-23.89 -19.42,-43.32 -43.31,-43.32 -23.89,0 -43.33,19.43 -43.33,43.32 0,23.89 19.43,43.32 43.33,43.32z"/>
    <path class="fil0" d="M39.51 284.37c-23.88,0 -43.32,19.42 -43.32,43.31 0,23.88 19.44,43.32 43.32,43.32 23.88,0 43.31,-19.43 43.31,-43.32 0,-23.89 -19.43,-43.31 -43.31,-43.31z"/>
    <path class="fil0" d="M179.71 284.37c-23.89,0 -43.33,19.42 -43.33,43.31 0,23.88 19.44,43.32 43.33,43.32 23.88,0 43.31,-19.43 43.31,-43.32 0,-23.89 -19.43,-43.31 -43.31,-43.31z"/>
    <path class="fil0" d="M322.16 284.37c-23.88,0 -43.32,19.42 -43.32,43.31 0,23.88 19.44,43.32 43.32,43.32 23.89,0 43.31,-19.43 43.31,-43.32 0,-23.89 -19.43,-43.31 -43.31,-43.31z"/>
   </g>
  </g>
  <polygon class="fil1" points="-4.8,374.3 365.6,374.3 365.6,3.9 -4.8,3.9 "/>
 </g>
</svg>
