<?xml version="1.0" encoding="UTF-8"?>
<!DOCTYPE svg PUBLIC "-//W3C//DTD SVG 1.1//EN" "http://www.w3.org/Graphics/SVG/1.1/DTD/svg11.dtd">
<!-- Creator: CorelDRAW -->
<svg xmlns="http://www.w3.org/2000/svg" xml:space="preserve" width="5.2916mm" height="5.2916mm" version="1.1" style="shape-rendering:geometricPrecision; text-rendering:geometricPrecision; image-rendering:optimizeQuality; fill-rule:evenodd; clip-rule:evenodd"
viewBox="0 0 529.16 529.16"
 xmlns:xlink="http://www.w3.org/1999/xlink"
 xmlns:xodm="http://www.corel.com/coreldraw/odm/2003">
 <defs>
  <style type="text/css">
   <![CDATA[
    .fil1 {fill:none}
    .fil0 {fill:#00CCFF;fill-rule:nonzero}
   ]]>
  </style>
   <clipPath id="id0">
    <path d="M-6.35 535.51l529.16 0 0 -529.16 -529.16 0 0 529.16z"/>
   </clipPath>
 </defs>
 <g id="Camada_x0020_1">
  <metadata id="CorelCorpID_0Corel-Layer"/>
  <g>
  </g>
  <g style="clip-path:url(#id0)">
   <g id="_2152946620464">
    <path class="fil0" d="M522.07 300.92c0,-0.01 0,-0.01 -0.01,-0.01l-99.9 -250.86c-2.12,-5.33 -8.17,-7.93 -13.5,-5.81 0,0 0,0 -0.01,0l-405.31 161.4c-1.66,0.71 -3.09,1.85 -4.16,3.3 -3.37,1.75 -5.5,5.22 -5.54,9.02l0 270.08c0,5.73 4.65,10.38 10.39,10.38l436.28 0c5.74,0 10.39,-4.65 10.39,-10.38l0 -147.51 65.57 -26.11c5.33,-2.13 7.92,-8.17 5.8,-13.5zm-92.14 176.73l-415.51 0 0 -249.31 415.51 0 0 249.31zm-262.97 -270.03l173.93 -69.31c15.53,16.32 37.03,25.59 59.56,25.68l17.34 43.63 -250.83 0zm283.74 110.6l0 -100.26c0,-5.74 -4.65,-10.39 -10.39,-10.39l-0.16 0 -22.01 -55.29c-0.25,-0.46 -0.53,-0.9 -0.86,-1.3 -1.11,-5.01 -5.74,-8.42 -10.85,-8 -20.96,1.91 -41.45,-6.92 -54.46,-23.46 -3.24,-3.99 -8.93,-4.99 -13.33,-2.33 -0.5,0.06 -0.98,0.15 -1.47,0.28l-212.34 84.55c-2.57,1.01 -4.63,3.01 -5.7,5.55l-64.49 0 352.06 -140.18 92.23 231.59 -48.23 19.24z"/>
    <path class="fil0" d="M42.61 407.52c20.17,5.96 35.95,21.73 41.93,41.88 1.32,4.4 5.36,7.42 9.95,7.42 0.54,-0.03 1.08,-0.11 1.6,-0.24 0.47,0.13 0.95,0.23 1.43,0.29l249.3 0c0.43,-0.05 0.85,-0.14 1.27,-0.26 5.19,1.27 10.42,-1.92 11.68,-7.11 0.01,-0.02 0.01,-0.04 0.02,-0.05 5.97,-20.19 21.75,-35.97 41.93,-41.94 4.89,-1.5 7.94,-6.37 7.13,-11.42 0.13,-0.51 0.23,-1.02 0.3,-1.54l0 -83.11c-0.06,-0.52 -0.17,-1.03 -0.31,-1.53 0.81,-5.06 -2.23,-9.94 -7.13,-11.43 -20.18,-5.97 -35.96,-21.76 -41.91,-41.94 -1.51,-4.93 -6.43,-7.98 -11.51,-7.13 -0.49,-0.13 -0.97,-0.23 -1.47,-0.29l-249.3 0c-0.53,0.06 -1.04,0.17 -1.55,0.31 -5.05,-0.81 -9.93,2.23 -11.43,7.13 -5.97,20.17 -21.75,35.95 -41.93,41.92 -4.9,1.5 -7.94,6.37 -7.13,11.43 -0.13,0.5 -0.23,1.02 -0.29,1.53l0 83.11c0.06,0.48 0.16,0.97 0.29,1.44 -0.85,5.09 2.2,10.02 7.13,11.53zm13.36 -91.86c20.86,-8.37 37.39,-24.91 45.76,-45.77l240.87 0c8.37,20.86 24.91,37.4 45.77,45.77l0 74.67c-20.85,8.39 -37.38,24.92 -45.76,45.77l-240.88 0c-8.38,-20.85 -24.91,-37.38 -45.76,-45.77l0 -74.67z"/>
    <path class="fil0" d="M222.16 415.32c34.42,0 62.33,-27.91 62.33,-62.33 0,-34.42 -27.91,-62.32 -62.33,-62.32 -34.42,0 -62.33,27.9 -62.33,62.32 0.04,34.41 27.92,62.3 62.33,62.33zm0 -103.88c22.95,0 41.55,18.61 41.55,41.55 0,22.95 -18.6,41.55 -41.55,41.55 -22.95,0 -41.55,-18.6 -41.55,-41.55 0,-22.94 18.6,-41.55 41.55,-41.55z"/>
    <path class="fil0" d="M107.93 368.6c8.6,0 15.58,-6.98 15.58,-15.58 0,-8.61 -6.98,-15.59 -15.58,-15.59 -8.61,0 -15.58,6.98 -15.58,15.59 0,8.6 6.97,15.58 15.58,15.58zm0 -20.78c2.87,0 5.19,2.33 5.19,5.2 0,2.86 -2.32,5.19 -5.19,5.19 -2.87,0 -5.2,-2.33 -5.2,-5.19 0,-2.87 2.33,-5.2 5.2,-5.2z"/>
    <path class="fil0" d="M336.44 368.6c8.61,0 15.58,-6.98 15.58,-15.58 0,-8.61 -6.97,-15.59 -15.58,-15.59 -8.61,0 -15.58,6.98 -15.58,15.59 0,8.6 6.97,15.58 15.58,15.58zm0 -20.78c2.87,0 5.19,2.33 5.19,5.2 0,2.86 -2.32,5.19 -5.19,5.19 -2.87,0 -5.19,-2.33 -5.19,-5.19 0,-2.87 2.32,-5.2 5.19,-5.2z"/>
   </g>
  </g>
  <polygon class="fil1" points="-6.35,535.51 522.81,535.51 522.81,6.35 -6.35,6.35 "/>
 </g>
</svg>
