<?xml version="1.0" encoding="UTF-8"?>
<!DOCTYPE svg PUBLIC "-//W3C//DTD SVG 1.1//EN" "http://www.w3.org/Graphics/SVG/1.1/DTD/svg11.dtd">
<!-- Creator: CorelDRAW -->
<svg xmlns="http://www.w3.org/2000/svg" xml:space="preserve" width="10.2244mm" height="9.4682mm" version="1.1" style="shape-rendering:geometricPrecision; text-rendering:geometricPrecision; image-rendering:optimizeQuality; fill-rule:evenodd; clip-rule:evenodd"
viewBox="0 0 1022.44 946.82"
 xmlns:xlink="http://www.w3.org/1999/xlink"
 xmlns:xodm="http://www.corel.com/coreldraw/odm/2003">
 <defs>
  <style type="text/css">
   <![CDATA[
    .str0 {stroke:#00CCFF;stroke-width:39.69;stroke-linecap:round;stroke-linejoin:round;stroke-miterlimit:22.9256}
    .fil0 {fill:none}
   ]]>
  </style>
 </defs>
 <g id="Camada_x0020_1">
  <metadata id="CorelCorpID_0Corel-Layer"/>
  <g id="icon-service-2.svg">
   <path class="fil0 str0" d="M316.99 927.69c167,0 302.38,-135.38 302.38,-302.39 0,-166.99 -135.38,-302.37 -302.38,-302.37 -167,0 -302.39,135.38 -302.39,302.37 0,167.01 135.39,302.39 302.39,302.39z"/>
   <path class="fil0 str0" d="M694.96 927.69c167,0 302.38,-135.38 302.38,-302.39 0,-166.99 -135.38,-302.37 -302.38,-302.37 -167,0 -302.38,135.38 -302.38,302.37 0,167.01 135.38,302.39 302.38,302.39z"/>
   <path class="fil0 str0" d="M505.98 625.33c167,0 302.38,-135.38 302.38,-302.38 0,-167 -135.38,-302.38 -302.38,-302.38 -167,0 -302.38,135.38 -302.38,302.38 0,167 135.38,302.38 302.38,302.38z"/>
  </g>
 </g>
</svg>
