<?xml version="1.0" encoding="UTF-8"?>
<!DOCTYPE svg PUBLIC "-//W3C//DTD SVG 1.1//EN" "http://www.w3.org/Graphics/SVG/1.1/DTD/svg11.dtd">
<!-- Creator: CorelDRAW -->
<svg xmlns="http://www.w3.org/2000/svg" xml:space="preserve" width="10.5832mm" height="10.5832mm" version="1.1" style="shape-rendering:geometricPrecision; text-rendering:geometricPrecision; image-rendering:optimizeQuality; fill-rule:evenodd; clip-rule:evenodd"
viewBox="0 0 1058.32 1058.32"
 xmlns:xlink="http://www.w3.org/1999/xlink"
 xmlns:xodm="http://www.corel.com/coreldraw/odm/2003">
 <defs>
  <style type="text/css">
   <![CDATA[
    .str0 {stroke:#00CCFF;stroke-width:52.92;stroke-linecap:round;stroke-linejoin:round;stroke-miterlimit:22.9256}
    .fil0 {fill:none}
   ]]>
  </style>
   <clipPath id="id0">
    <path d="M-4.24 1062.56l1058.32 0 0 -1058.32 -1058.32 0 0 1058.32z"/>
   </clipPath>
 </defs>
 <g id="Camada_x0020_1">
  <metadata id="CorelCorpID_0Corel-Layer"/>
  <g>
  </g>
  <g style="clip-path:url(#id0)">
   <g id="_2152897553088">
    <path class="fil0 str0" d="M392.64 627.87l-321.28 0c-20.88,0 -37.8,16.92 -37.8,37.79l0 321.29c0,20.87 16.92,37.79 37.8,37.79l321.28 0c20.87,0 37.8,-16.92 37.8,-37.79l0 -321.29c0,-20.87 -16.93,-37.79 -37.8,-37.79z"/>
    <path class="fil0 str0" d="M978.51 627.87l-321.28 0c-20.88,0 -37.8,16.92 -37.8,37.79l0 321.29c0,20.87 16.92,37.79 37.8,37.79l321.28 0c20.87,0 37.79,-16.92 37.79,-37.79l0 -321.29c0,-20.87 -16.92,-37.79 -37.79,-37.79z"/>
    <path class="fil0 str0" d="M685.95 42.01l-321.28 0c-20.87,0 -37.79,16.92 -37.79,37.8l0 321.28c0,20.87 16.92,37.8 37.79,37.8l321.28 0c20.88,0 37.8,-16.93 37.8,-37.8l0 -321.28c0,-20.88 -16.92,-37.8 -37.8,-37.8z"/>
   </g>
  </g>
  <polygon class="fil0" points="-4.24,1062.56 1054.08,1062.56 1054.08,4.24 -4.24,4.24 "/>
 </g>
</svg>
