<?xml version="1.0" encoding="UTF-8"?>
<!DOCTYPE svg PUBLIC "-//W3C//DTD SVG 1.1//EN" "http://www.w3.org/Graphics/SVG/1.1/DTD/svg11.dtd">
<!-- Creator: CorelDRAW -->
<svg xmlns="http://www.w3.org/2000/svg" xml:space="preserve" width="10.5832mm" height="10.5832mm" version="1.1" style="shape-rendering:geometricPrecision; text-rendering:geometricPrecision; image-rendering:optimizeQuality; fill-rule:evenodd; clip-rule:evenodd"
viewBox="0 0 1058.32 1058.32"
 xmlns:xlink="http://www.w3.org/1999/xlink"
 xmlns:xodm="http://www.corel.com/coreldraw/odm/2003">
 <defs>
  <style type="text/css">
   <![CDATA[
    .str0 {stroke:#00CCFF;stroke-width:39.69;stroke-linecap:round;stroke-linejoin:round;stroke-miterlimit:22.9256}
    .fil0 {fill:none}
   ]]>
  </style>
   <clipPath id="id0">
    <path d="M-1.07 1059.39l1058.32 0 0 -1058.32 -1058.32 0 0 1058.32z"/>
   </clipPath>
 </defs>
 <g id="Camada_x0020_1">
  <metadata id="CorelCorpID_0Corel-Layer"/>
  <g>
  </g>
  <g style="clip-path:url(#id0)">
   <g id="_2152791157856">
    <polygon class="fil0 str0" points="414.7,76.66 36.72,76.66 36.72,454.64 414.7,454.64 "/>
    <line class="fil0 str0" x1="1000.57" y1="1021.62" x2="622.59" y2= "1021.62" />
    <line class="fil0 str0" x1="622.59" y1="643.63" x2="1000.57" y2= "643.63" />
    <line class="fil0 str0" x1="622.59" y1="832.61" x2="1000.57" y2= "832.61" />
    <polygon class="fil0 str0" points="1019.47,454.63 603.69,454.63 811.58,38.86 "/>
    <path class="fil0 str0" d="M225.71 1021.61c104.38,0 188.99,-84.62 188.99,-188.99 0,-104.38 -84.61,-188.99 -188.99,-188.99 -104.37,0 -188.99,84.61 -188.99,188.99 0,104.37 84.62,188.99 188.99,188.99z"/>
   </g>
  </g>
  <polygon class="fil0" points="-1.07,1059.39 1057.25,1059.39 1057.25,1.07 -1.07,1.07 "/>
 </g>
</svg>
