<?xml version="1.0" encoding="UTF-8"?>
<!DOCTYPE svg PUBLIC "-//W3C//DTD SVG 1.1//EN" "http://www.w3.org/Graphics/SVG/1.1/DTD/svg11.dtd">
<!-- Creator: CorelDRAW -->
<svg xmlns="http://www.w3.org/2000/svg" xml:space="preserve" width="10.5832mm" height="10.5832mm" version="1.1" style="shape-rendering:geometricPrecision; text-rendering:geometricPrecision; image-rendering:optimizeQuality; fill-rule:evenodd; clip-rule:evenodd"
viewBox="0 0 1058.32 1058.32"
 xmlns:xlink="http://www.w3.org/1999/xlink"
 xmlns:xodm="http://www.corel.com/coreldraw/odm/2003">
 <defs>
  <style type="text/css">
   <![CDATA[
    .str0 {stroke:#00CCFF;stroke-width:39.69;stroke-linecap:round;stroke-linejoin:round;stroke-miterlimit:22.9256}
    .fil0 {fill:none}
   ]]>
  </style>
   <clipPath id="id0">
    <path d="M-4.24 1062.56l1058.32 0 0 -1058.32 -1058.32 0 0 1058.32z"/>
   </clipPath>
 </defs>
 <g id="Camada_x0020_1">
  <metadata id="CorelCorpID_0Corel-Layer"/>
  <g>
  </g>
  <g style="clip-path:url(#id0)">
   <g id="_2152890722144">
    <path class="fil0 str0" d="M940.7 42.01l-831.55 0c-41.75,0 -75.59,33.84 -75.59,75.59l0 831.55c0,41.75 33.84,75.6 75.59,75.6l831.55 0c41.75,0 75.6,-33.85 75.6,-75.6l0 -831.55c0,-41.75 -33.85,-75.59 -75.6,-75.59z"/>
    <path class="fil0 str0" d="M524.92 873.53c146.13,0 264.59,-118.45 264.59,-264.58 0,-146.12 -118.46,-264.58 -264.59,-264.58 -146.12,0 -264.58,118.46 -264.58,264.58 0,146.13 118.46,264.58 264.58,264.58z"/>
    <line class="fil0 str0" x1="33.56" y1="268.82" x2="260.34" y2= "268.82" />
    <line class="fil0 str0" x1="789.51" y1="268.82" x2="1016.29" y2= "268.82" />
    <line class="fil0 str0" x1="524.92" y1="606.73" x2="524.92" y2= "871.31" />
    <line class="fil0 str0" x1="298.14" y1="472.89" x2="524.93" y2= "606.69" />
    <line class="fil0 str0" x1="751.71" y1="472.89" x2="524.92" y2= "606.69" />
   </g>
  </g>
  <polygon class="fil0" points="-4.24,1062.56 1054.08,1062.56 1054.08,4.24 -4.24,4.24 "/>
 </g>
</svg>
