<?xml version="1.0" encoding="UTF-8"?>
<!DOCTYPE svg PUBLIC "-//W3C//DTD SVG 1.1//EN" "http://www.w3.org/Graphics/SVG/1.1/DTD/svg11.dtd">
<!-- Creator: CorelDRAW -->
<svg xmlns="http://www.w3.org/2000/svg" xml:space="preserve" width="10.5832mm" height="10.5832mm" version="1.1" style="shape-rendering:geometricPrecision; text-rendering:geometricPrecision; image-rendering:optimizeQuality; fill-rule:evenodd; clip-rule:evenodd"
viewBox="0 0 1058.32 1058.32"
 xmlns:xlink="http://www.w3.org/1999/xlink"
 xmlns:xodm="http://www.corel.com/coreldraw/odm/2003">
 <defs>
  <style type="text/css">
   <![CDATA[
    .str0 {stroke:#00CCFF;stroke-width:39.69;stroke-linecap:round;stroke-linejoin:round;stroke-miterlimit:22.9256}
    .fil0 {fill:none}
   ]]>
  </style>
 </defs>
 <g id="Camada_x0020_1">
  <metadata id="CorelCorpID_0Corel-Layer"/>
  <g id="icon-company-benefit-1.svg">
   <path class="fil0 str0" d="M940.69 42.03l-831.55 0c-41.75,0 -75.59,33.85 -75.59,75.6l0 831.54c0,41.76 33.84,75.6 75.59,75.6l831.55 0c41.75,0 75.6,-33.84 75.6,-75.6l0 -831.54c0,-41.75 -33.85,-75.6 -75.6,-75.6z"/>
   <path class="fil0 str0" d="M524.91 873.56c146.13,0 264.59,-118.46 264.59,-264.59 0,-146.12 -118.46,-264.58 -264.59,-264.58 -146.12,0 -264.58,118.46 -264.58,264.58 0,146.13 118.46,264.59 264.58,264.59z"/>
   <line class="fil0 str0" x1="33.55" y1="268.84" x2="260.33" y2= "268.84" />
   <line class="fil0 str0" x1="789.5" y1="268.84" x2="1016.28" y2= "268.84" />
   <line class="fil0 str0" x1="524.91" y1="606.75" x2="524.91" y2= "871.33" />
   <line class="fil0 str0" x1="298.13" y1="472.91" x2="524.92" y2= "606.71" />
   <line class="fil0 str0" x1="751.7" y1="472.91" x2="524.91" y2= "606.71" />
  </g>
 </g>
</svg>
