<?xml version="1.0" encoding="UTF-8"?>
<!DOCTYPE svg PUBLIC "-//W3C//DTD SVG 1.1//EN" "http://www.w3.org/Graphics/SVG/1.1/DTD/svg11.dtd">
<!-- Creator: CorelDRAW -->
<svg xmlns="http://www.w3.org/2000/svg" xml:space="preserve" width="10.5832mm" height="10.5832mm" version="1.1" style="shape-rendering:geometricPrecision; text-rendering:geometricPrecision; image-rendering:optimizeQuality; fill-rule:evenodd; clip-rule:evenodd"
viewBox="0 0 1058.32 1058.32"
 xmlns:xlink="http://www.w3.org/1999/xlink"
 xmlns:xodm="http://www.corel.com/coreldraw/odm/2003">
 <defs>
  <style type="text/css">
   <![CDATA[
    .str0 {stroke:#00CCFF;stroke-width:52.92;stroke-linecap:round;stroke-linejoin:round;stroke-miterlimit:22.9256}
    .fil0 {fill:none}
   ]]>
  </style>
   <clipPath id="id0">
    <path d="M-4.24 1062.56l1058.32 0 0 -1058.32 -1058.32 0 0 1058.32z"/>
   </clipPath>
 </defs>
 <g id="Camada_x0020_1">
  <metadata id="CorelCorpID_0Corel-Layer"/>
  <g>
  </g>
  <g style="clip-path:url(#id0)">
   <g id="_2152888598672">
    <path class="fil0 str0" d="M391.11 174.36l32.51 -83.91c5.48,-14.21 15.13,-26.43 27.67,-35.06 12.55,-8.64 27.41,-13.28 42.64,-13.32l61.98 0c15.23,0.04 30.09,4.68 42.64,13.32 12.54,8.63 22.19,20.85 27.67,35.06l32.5 83.91 110.37 63.5 89.21 -13.61c14.85,-2.02 29.96,0.43 43.43,7.02 13.46,6.6 24.65,17.05 32.16,30.02l30.24 52.92c7.75,13.18 11.32,28.4 10.24,43.65 -1.08,15.25 -6.76,29.82 -16.29,41.77l-55.18 70.3 0 127 56.69 70.31c9.53,11.96 15.21,26.52 16.29,41.77 1.08,15.25 -2.49,30.47 -10.24,43.65l-30.24 52.92c-7.51,12.97 -18.7,23.42 -32.16,30.01 -13.46,6.6 -28.58,9.04 -43.43,7.03l-89.21 -13.61 -110.36 63.5 -32.51 83.91c-5.48,14.21 -15.13,26.43 -27.67,35.06 -12.55,8.64 -27.41,13.28 -42.63,13.32l-63.5 0c-15.23,-0.04 -30.09,-4.68 -42.64,-13.32 -12.54,-8.63 -22.19,-20.85 -27.67,-35.06l-32.51 -83.91 -110.36 -63.5 -89.21 13.61c-14.85,2.01 -29.97,-0.43 -43.43,-7.03 -13.46,-6.59 -24.65,-17.04 -32.16,-30.01l-30.24 -52.92c-7.75,-13.18 -11.32,-28.4 -10.24,-43.65 1.08,-15.25 6.76,-29.81 16.29,-41.77l55.18 -70.31 0 -127 -56.69 -70.3c-9.53,-11.95 -15.21,-26.52 -16.29,-41.77 -1.08,-15.25 2.49,-30.47 10.24,-43.65l30.24 -52.92c7.51,-12.97 18.7,-23.42 32.16,-30.02 13.46,-6.59 28.58,-9.04 43.43,-7.02l89.21 13.61 111.87 -63.5z"/>
    <path class="fil0 str0" d="M524.92 760.22c125.25,0 226.79,-101.53 226.79,-226.79 0,-125.25 -101.54,-226.78 -226.79,-226.78 -125.25,0 -226.78,101.53 -226.78,226.78 0,125.26 101.53,226.79 226.78,226.79z"/>
    <polyline class="fil0 str0" points="524.92,306.65 524.92,533.43 751.7,533.43 "/>
    <line class="fil0 str0" x1="524.93" y1="533.41" x2="364.67" y2= "693.67" />
   </g>
  </g>
  <polygon class="fil0" points="-4.24,1062.56 1054.08,1062.56 1054.08,4.24 -4.24,4.24 "/>
 </g>
</svg>
