<?xml version="1.0" encoding="UTF-8"?>
<!DOCTYPE svg PUBLIC "-//W3C//DTD SVG 1.1//EN" "http://www.w3.org/Graphics/SVG/1.1/DTD/svg11.dtd">
<!-- Creator: CorelDRAW -->
<svg xmlns="http://www.w3.org/2000/svg" xml:space="preserve" width="4.6302mm" height="4.6302mm" version="1.1" style="shape-rendering:geometricPrecision; text-rendering:geometricPrecision; image-rendering:optimizeQuality; fill-rule:evenodd; clip-rule:evenodd"
viewBox="0 0 463.02 463.02"
 xmlns:xlink="http://www.w3.org/1999/xlink"
 xmlns:xodm="http://www.corel.com/coreldraw/odm/2003">
 <defs>
  <style type="text/css">
   <![CDATA[
    .fil0 {fill:#00CCFF;fill-rule:nonzero}
   ]]>
  </style>
 </defs>
 <g id="Camada_x0020_1">
  <metadata id="CorelCorpID_0Corel-Layer"/>
  <g id="icon-pricing-benefit-1.svg">
   <path class="fil0" d="M298.26 237.23l-93.71 93.71 -48.27 -48.28c-6.46,-6.46 -16.93,-6.46 -23.39,0 -6.46,6.46 -6.46,16.92 0,23.38l59.97 59.97c3.23,3.23 7.46,4.85 11.69,4.85 4.23,0 8.47,-1.62 11.7,-4.85l105.39 -105.4c6.46,-6.45 6.46,-16.92 0,-23.38 -6.46,-6.46 -16.92,-6.46 -23.38,0z"/>
   <path class="fil0" d="M376.1 36.65l-24.81 0 0 -15.88c0,-9.13 -7.4,-16.53 -16.54,-16.53 -9.13,0 -16.53,7.4 -16.53,16.53l0 15.88 -181.9 0 0 -15.88c0,-9.13 -7.41,-16.53 -16.54,-16.53 -9.13,0 -16.54,7.4 -16.54,16.53l0 15.88 -24.8 0c-45.59,0 -82.68,37.09 -82.68,82.68l0 265.24c0,45.59 37.09,82.69 82.68,82.69l297.66 0c45.58,0 82.68,-37.1 82.68,-82.69l0 -265.24c0,-45.59 -37.1,-82.68 -82.68,-82.68zm-347.27 82.68c0,-27.36 22.25,-49.61 49.61,-49.61l24.8 0 0 15.87c0,9.13 7.41,16.53 16.54,16.53 9.13,0 16.54,-7.4 16.54,-16.53l0 -15.87 181.9 0 0 15.87c0,9.13 7.4,16.53 16.53,16.53 9.14,0 16.54,-7.4 16.54,-16.53l0 -15.87 24.81 0c27.35,0 49.6,22.25 49.6,49.61l0 16.7 -396.87 0 0 -16.7zm347.27 314.85l-297.66 0c-27.36,0 -49.61,-22.25 -49.61,-49.61l0 -215.47 396.87 0 0 215.47c0,27.36 -22.25,49.61 -49.6,49.61z"/>
  </g>
 </g>
</svg>
