<?xml version="1.0" encoding="UTF-8"?>
<!DOCTYPE svg PUBLIC "-//W3C//DTD SVG 1.1//EN" "http://www.w3.org/Graphics/SVG/1.1/DTD/svg11.dtd">
<!-- Creator: CorelDRAW -->
<svg xmlns="http://www.w3.org/2000/svg" xml:space="preserve" width="3.9842mm" height="4.2334mm" version="1.1" style="shape-rendering:geometricPrecision; text-rendering:geometricPrecision; image-rendering:optimizeQuality; fill-rule:evenodd; clip-rule:evenodd"
viewBox="0 0 398.42 423.34"
 xmlns:xlink="http://www.w3.org/1999/xlink"
 xmlns:xodm="http://www.corel.com/coreldraw/odm/2003">
 <defs>
  <style type="text/css">
   <![CDATA[
    .fil0 {fill:#00CCFF;fill-rule:nonzero}
   ]]>
  </style>
 </defs>
 <g id="Camada_x0020_1">
  <metadata id="CorelCorpID_0Corel-Layer"/>
  <path id="icon-sub-heading.svg" class="fil0" d="M383.31 260.96l-126.12 -49.29 127.22 -49.28c6.58,-2.19 10.96,-9.86 9.86,-16.43 -2.19,-14.24 -8.77,-27.38 -16.44,-39.43 -6.59,-13.15 -15.36,-24.1 -26.33,-33.96 -5.48,-4.38 -13.16,-4.38 -18.64,0l-106.38 85.44 21.94 -134.72c2.19,-7.67 -2.2,-14.24 -8.78,-16.43 -13.16,-5.48 -28.51,-7.67 -42.77,-6.58 -14.25,-1.09 -29.61,1.1 -42.77,6.58 -6.58,2.19 -10.96,9.85 -8.77,16.43l21.93 134.72 -106.38 -85.44c-5.48,-5.47 -13.16,-5.47 -18.64,0 -10.97,8.77 -19.74,20.81 -26.32,33.96 -8.77,12.05 -14.26,25.19 -17.55,39.43 -1.09,7.66 3.29,14.24 9.87,16.43l125.03 49.28 -127.22 49.29c-6.58,2.19 -10.97,9.86 -9.87,16.43 2.19,14.24 7.68,27.38 16.45,39.43 6.58,13.15 15.35,24.1 26.32,33.96 5.48,4.38 13.16,4.38 18.64,0l106.38 -85.44 -21.93 134.72c-2.19,7.67 2.19,14.24 8.77,17.53 14.26,4.38 28.52,6.57 42.77,5.48 14.26,1.09 29.61,-1.1 42.77,-5.48 6.58,-2.19 10.97,-9.86 8.78,-17.53l-21.94 -134.72 106.38 85.44c5.49,4.38 13.16,4.38 19.74,0 10.97,-8.77 19.74,-19.72 26.32,-32.86 8.78,-12.05 14.26,-25.19 17.55,-39.43 1.09,-8.77 -2.19,-15.34 -9.87,-17.53z"/>
 </g>
</svg>
