<?xml version="1.0" encoding="UTF-8"?>
<!DOCTYPE svg PUBLIC "-//W3C//DTD SVG 1.1//EN" "http://www.w3.org/Graphics/SVG/1.1/DTD/svg11.dtd">
<!-- Creator: CorelDRAW -->
<svg xmlns="http://www.w3.org/2000/svg" xml:space="preserve" width="10.5832mm" height="10.5832mm" version="1.1" style="shape-rendering:geometricPrecision; text-rendering:geometricPrecision; image-rendering:optimizeQuality; fill-rule:evenodd; clip-rule:evenodd"
viewBox="0 0 1058.32 1058.32"
 xmlns:xlink="http://www.w3.org/1999/xlink"
 xmlns:xodm="http://www.corel.com/coreldraw/odm/2003">
 <defs>
  <style type="text/css">
   <![CDATA[
    .str0 {stroke:#00CCFF;stroke-width:39.69;stroke-linecap:round;stroke-linejoin:round;stroke-miterlimit:22.9256}
    .fil0 {fill:none}
   ]]>
  </style>
   <clipPath id="id0">
    <path d="M-4.24 1062.56l1058.32 0 0 -1058.32 -1058.32 0 0 1058.32z"/>
   </clipPath>
 </defs>
 <g id="Camada_x0020_1">
  <metadata id="CorelCorpID_0Corel-Layer"/>
  <g>
  </g>
  <g style="clip-path:url(#id0)">
   <g id="_2152848958336">
    <path class="fil0 str0" d="M524.92 419.98c271.38,0 491.37,-84.61 491.37,-188.98 0,-104.38 -219.99,-188.99 -491.37,-188.99 -271.37,0 -491.37,84.61 -491.37,188.99 0,104.37 220,188.98 491.37,188.98z"/>
    <path class="fil0 str0" d="M33.55 230.99l0 604.76c0,104.32 219.99,188.99 491.37,188.99 271.39,0 491.37,-84.67 491.37,-188.99l0 -604.76"/>
    <path class="fil0 str0" d="M1016.29 533.4c0,104.32 -219.98,188.99 -491.37,188.99 -271.38,0 -491.37,-84.67 -491.37,-188.99"/>
   </g>
  </g>
  <polygon class="fil0" points="-4.24,1062.56 1054.08,1062.56 1054.08,4.24 -4.24,4.24 "/>
 </g>
</svg>
