<?xml version="1.0" encoding="UTF-8"?>
<!DOCTYPE svg PUBLIC "-//W3C//DTD SVG 1.1//EN" "http://www.w3.org/Graphics/SVG/1.1/DTD/svg11.dtd">
<!-- Creator: CorelDRAW -->
<svg xmlns="http://www.w3.org/2000/svg" xml:space="preserve" width="11.6838mm" height="13.299mm" version="1.1" style="shape-rendering:geometricPrecision; text-rendering:geometricPrecision; image-rendering:optimizeQuality; fill-rule:evenodd; clip-rule:evenodd"
viewBox="0 0 1168.38 1329.9"
 xmlns:xlink="http://www.w3.org/1999/xlink"
 xmlns:xodm="http://www.corel.com/coreldraw/odm/2003">
 <defs>
  <style type="text/css">
   <![CDATA[
    .fil0 {fill:#00CCFF;fill-rule:nonzero}
   ]]>
  </style>
 </defs>
 <g id="Camada_x0020_1">
  <metadata id="CorelCorpID_0Corel-Layer"/>
  <g id="loader.svg">
   <path class="fil0" d="M883.99 164.74l-261.14 -151.56c-21.27,-12.34 -56.06,-12.34 -77.32,0l-259.2 150.43 597.66 1.13z"/>
   <polygon class="fil0" points="468.44,1279.83 1168.38,511.69 1168.38,398.78 176.33,1110.28 "/>
   <path class="fil0" d="M966.07 212.39l-49.47 -28.71 -781.07 67.46 -96.88 56.23c-21.26,12.34 -38.66,42.63 -38.66,67.32l0 207.99 966.08 -370.29z"/>
   <path class="fil0" d="M495.85 1295.72l49.67 28.83c21.26,12.35 56.05,12.35 77.32,0l506.88 -294.18c21.26,-12.35 38.65,-42.63 38.65,-67.32l0 -286.64 -672.52 619.31z"/>
   <path class="fil0" d="M38.65 1030.38l14.13 8.2 1115.6 -660.27 0 -3.62c0,-24.68 -17.39,-54.98 -38.66,-67.32l-22.9 -13.29 -1106.83 315.96 0 353.03c0,24.68 17.4,54.97 38.66,67.31z"/>
  </g>
 </g>
</svg>
