<?xml version="1.0" encoding="UTF-8"?>
<!DOCTYPE svg PUBLIC "-//W3C//DTD SVG 1.1//EN" "http://www.w3.org/Graphics/SVG/1.1/DTD/svg11.dtd">
<!-- Creator: CorelDRAW -->
<svg xmlns="http://www.w3.org/2000/svg" xml:space="preserve" width="52.7976mm" height="52.7906mm" version="1.1" style="shape-rendering:geometricPrecision; text-rendering:geometricPrecision; image-rendering:optimizeQuality; fill-rule:evenodd; clip-rule:evenodd"
viewBox="0 0 5279.76 5279.06"
 xmlns:xlink="http://www.w3.org/1999/xlink"
 xmlns:xodm="http://www.corel.com/coreldraw/odm/2003">
 <defs>
  <style type="text/css">
   <![CDATA[
    .fil0 {fill:#00CCFF;fill-rule:nonzero}
   ]]>
  </style>
 </defs>
 <g id="Camada_x0020_1">
  <metadata id="CorelCorpID_0Corel-Layer"/>
  <g id="our-agency-circle.svg">
   <path class="fil0" d="M2846.5 445c-26.78,-2.3 -51.2,-9.41 -73.29,-21.32 -22.04,-12.3 -40.35,-27.94 -54.88,-46.91 -14.55,-18.97 -24.66,-40.25 -30.32,-63.85l59.43 -19.15c8.04,27.27 21.4,48.84 40.05,64.69 18.66,15.86 40.99,24.91 67,27.15 15.29,1.31 28.86,0.17 40.74,-3.43 11.88,-3.98 21.27,-10.11 28.15,-18.37 7.25,-8.24 11.38,-18.09 12.36,-29.56 1.35,-15.67 -1.96,-28.48 -9.97,-38.41 -8,-9.93 -20.38,-18.32 -37.13,-25.15l-78.1 -32.15c-31.27,-12.7 -54.43,-29.91 -69.51,-51.62 -15.05,-22.1 -21.38,-46.91 -19.02,-74.44 2.06,-24.08 9.82,-44.6 23.2,-61.55 13.44,-17.33 30.93,-30.27 52.47,-38.81 21.91,-8.52 46.25,-11.62 73,-9.32 25.64,2.21 48.55,8.8 68.79,19.79 20.27,10.6 37.2,24.39 50.75,41.35 13.94,16.99 23.47,36.1 28.57,57.34l-58.31 19.82c-6.48,-23.28 -18.18,-41.81 -35.09,-55.59 -16.53,-13.75 -36.45,-21.63 -59.79,-23.64 -14.13,-1.21 -26.78,0.2 -37.92,4.25 -11.08,3.67 -20.1,9.82 -27.01,18.47 -6.48,8.3 -10.24,18.38 -11.27,30.23 -1.17,13.76 2.17,26.38 10.03,37.84 7.88,11.46 20.58,20.64 38.07,27.54l72.55 29.93c33.12,13.26 57.47,30.37 73,51.35 15.56,20.6 22.09,45.24 19.63,73.91 -2.04,23.71 -10.16,44.19 -24.37,61.46 -13.81,17.3 -32.07,30.36 -54.79,39.19 -22.68,8.44 -48.37,11.43 -77.02,8.96z"/>
   <path class="fil0" d="M3208.13 508.42c-30.11,-7.73 -55.11,-21.48 -75.01,-41.24 -19.42,-20.04 -32.57,-43.62 -39.48,-70.75 -6.8,-27.5 -6.4,-56.12 1.25,-85.86 7.83,-30.47 21.24,-55.75 40.27,-75.83 19.39,-19.98 41.93,-33.8 67.68,-41.46 25.82,-8.02 52.86,-8.41 81.12,-1.16 22.67,5.82 41.93,14.92 57.76,27.31 15.85,12.38 28.12,27.02 36.88,43.93 8.81,16.53 14.15,34.34 15.98,53.43 2.22,19.18 0.79,38.63 -4.26,58.33 -1.24,4.83 -2.72,9.8 -4.42,14.91 -1.72,5.1 -3.7,9.75 -5.95,13.92l-240.32 -61.68 12.88 -50.18 204.63 52.52 -35.98 15.13c8.39,-17.25 11.24,-33.76 8.54,-49.5 -2.22,-16.03 -8.59,-29.75 -19.12,-41.17 -10.09,-11.7 -23.5,-19.69 -40.22,-23.99 -16.72,-4.29 -32.68,-3.83 -47.89,1.38 -15.11,4.84 -28.21,14.16 -39.27,27.95 -10.98,13.43 -18.52,31.3 -22.67,53.61 -7.12,19.97 -8.89,38.52 -5.37,55.67 3.89,17.24 11.61,31.91 23.18,43.98 11.93,12.18 26.8,20.56 44.66,25.14 18.2,4.67 34.69,4.54 49.42,-0.39 15.11,-4.84 28.05,-12.81 38.82,-23.91l44.84 38.26c-9.57,12.59 -22.14,23.03 -37.75,31.31 -15.11,8 -32.28,13.11 -51.46,15.31 -18.74,1.93 -38.32,0.27 -58.74,-4.97z"/>
   <path class="fil0" d="M3488.75 602.91c-19.4,-8.35 -35.04,-19.06 -46.97,-32.13 -11.4,-13.28 -18.57,-27.65 -21.54,-43.12 -2.77,-15.83 -0.6,-32.03 6.54,-48.59 6.67,-15.51 16.01,-27.99 28.02,-37.44 12.36,-9.29 27.6,-15.06 45.69,-17.3 18.1,-2.23 38.82,-0.4 62.18,5.49l106.47 26.43 -20.29 47.04 -94.36 -22.47c-17.06,-4.01 -30.9,-3.91 -41.48,0.3 -10.45,3.86 -18.1,11.43 -22.94,22.71 -4.71,10.92 -4.53,21.66 0.53,32.2 5.58,10.34 14.89,18.32 27.91,23.93 16.22,6.99 31.83,9.54 46.86,7.65 15.37,-1.74 28.92,-6.98 40.61,-15.72 11.86,-9.1 20.9,-20.87 27.12,-35.32l31.67 -73.48c6.06,-14.1 5.72,-27.83 -1.06,-41.2 -6.27,-13.57 -18.04,-24.07 -35.32,-31.51 -15.85,-6.83 -31.59,-8.6 -47.23,-5.3 -15.1,3.09 -28.31,9.95 -39.55,20.56l-39 -46.26c11.35,-11.81 25.32,-20.43 41.86,-25.84 16.67,-5.77 34.23,-8.23 52.68,-7.38 18.81,0.99 37.17,5.36 55.16,13.1 22.54,9.72 40.64,22.52 54.27,38.42 13.97,16.05 22.46,33.7 25.45,52.96 3.49,19.05 0.98,38.44 -7.51,58.18l-82.92 192.43 -57.08 -24.6 22.31 -51.81 11.48 6.83c-11.72,8.74 -24.66,15.07 -38.89,18.97 -13.87,4.06 -28.47,5.49 -43.84,4.3 -15.01,-1.03 -30.64,-5.04 -46.83,-12.03z"/>
   <path class="fil0" d="M3706.87 698.97l157.69 -268.53 53.6 31.48 -31.77 54.1 -0.29 -10.86c16.24,-14.03 33.23,-20.97 50.93,-20.81 17.91,-0.17 36.11,5.19 54.64,16.07l16.37 9.62 -30 51.12 -23.34 -13.7c-18.52,-10.88 -36.99,-13.93 -55.37,-9.15 -17.86,4.64 -33,17.55 -45.43,38.73l-90.94 154.87 -56.09 -32.94z"/>
   <path class="fil0" d="M4004.82 904.79c-24.66,-18.95 -42.23,-41.42 -52.74,-67.41 -9.97,-26.06 -13.09,-53.15 -9.39,-81.28 4.02,-27.89 15.51,-54.15 34.45,-78.8 18.71,-24.33 41.04,-42.03 66.94,-53.08 25.93,-11.04 52.68,-14.68 80.27,-10.89 27.81,3.48 54.06,14.69 78.69,33.64 16.72,12.86 30.06,27.95 39.98,45.26 10.16,17.01 16.59,34.78 19.29,53.31 2.99,18.76 1.82,36.98 -3.55,54.64l-61.3 -13.74c4.66,-16.76 4.13,-33.38 -1.59,-49.87 -5.18,-16.57 -15.08,-30.46 -29.66,-41.69 -14,-10.76 -29.31,-16.97 -45.96,-18.63 -16.08,-1.72 -32.12,1.19 -48.1,8.75 -15.74,7.26 -29.58,18.65 -41.51,34.16 -11.93,15.51 -19.5,31.97 -22.7,49.35 -2.97,17.08 -1.67,33.33 3.91,48.75 5.88,15.65 15.8,28.85 29.8,39.62 14.89,11.46 30.77,17.6 47.57,18.41 17.33,0.74 33.76,-3.32 49.29,-12.19l28.68 56.18c-14.92,9.34 -31.96,15.12 -51.09,17.35 -18.6,2.16 -37.55,0.67 -56.81,-4.48 -19.28,-5.14 -37.44,-14.26 -54.47,-27.36z"/>
   <path class="fil0" d="M4156.66 1020.81l315.73 -300.32 44.82 47.13 -134.28 127.74 -1.32 -13.06c19.47,-7.93 38.65,-9.21 57.52,-3.86 19.13,5.1 36.38,15.71 51.72,31.83 15.88,16.69 26.28,34.86 31.2,54.53 4.95,19.66 4.44,39.19 -1.46,58.59 -5.9,19.39 -17.06,36.89 -33.47,52.5l-145.97 138.85 -44.45 -46.71 133.06 -126.56c11.41,-10.84 18.87,-22.19 22.41,-34.04 4.1,-11.84 4.69,-23.5 1.7,-34.97 -2.7,-11.74 -8.66,-22.48 -17.92,-32.21 -8.99,-9.45 -19.42,-15.96 -31.27,-19.51 -11.32,-3.54 -23.12,-3.7 -35.4,-0.48 -12.04,3.5 -23.63,10.54 -34.74,21.12l-133.03 126.56 -44.85 -47.13z"/>
   <polygon class="fil0" points="4494.27,1420.07 4865.08,1204.7 5007.03,1449.09 4954.78,1479.45 4846.93,1293.78 4740.41,1355.65 4842.46,1531.36 4790.2,1561.71 4688.15,1386.01 4580.63,1448.45 4688.47,1634.11 4636.22,1664.47 "/>
   <path class="fil0" d="M4663.92 1726.48l290.83 -111.38 22.22 58.05 -56.99 21.83 4.87 -9.87c21.01,0.16 39.21,6.35 54.56,18.55 15.71,12.06 27.54,28.48 35.51,49.27 8.25,21.5 10.84,42.27 7.85,62.33 -3.01,20.05 -10.95,37.89 -23.89,53.52 -12.91,15.63 -30.11,27.57 -51.62,35.8l-187.59 71.86 -23.07 -60.21 171.48 -65.68c14.71,-5.62 26.03,-13.04 34,-22.26 8.33,-9.36 13.28,-20.08 14.81,-32.18 2.01,-11.87 0.64,-24.08 -4.18,-36.62 -4.79,-12.54 -11.98,-22.73 -21.56,-30.57 -9.08,-7.61 -19.85,-12.12 -32.31,-13.52 -12.43,-1.39 -25.85,0.66 -40.16,6.15l-171.48 65.67 -23.28 -60.74z"/>
   <path class="fil0" d="M4689.72 2229.71c-4.58,-22.18 -5.22,-43.4 -1.94,-63.66 3.29,-20.26 9.93,-38.47 19.9,-54.63 9.63,-16.09 22.2,-29.25 37.73,-39.49l36.3 53.65c-13.2,8.2 -23.07,20.22 -29.61,36.06 -6.45,16.21 -7.56,34.66 -3.3,55.33 3.3,16.16 9.5,29.98 18.52,41.44 8.62,11.54 19.74,19.84 33.31,24.88 13.2,5.12 28.07,5.98 44.61,2.58l68.79 -14.15 -10.66 13.95c-21.7,-6.51 -39.56,-18.11 -53.58,-34.82 -13.94,-16.33 -23.31,-36.15 -28.1,-59.45 -5.79,-28.19 -4.44,-54.92 4.07,-80.17 8.52,-25.26 22.89,-46.83 43.13,-64.7 20.3,-17.5 44.72,-29.18 73.29,-35.06 28.95,-5.95 56.01,-4.85 81.18,3.29 25.26,8.51 46.75,22.51 64.47,41.98 17.7,19.47 29.51,43.49 35.38,72.06 4.79,23.3 3.97,45.02 -2.46,65.15 -5.98,20.43 -17.17,38.4 -33.58,53.91l-17.51 -5.21 67.1 -13.79 12.38 60.32 -290.91 59.84c-26.33,5.41 -51.12,3.85 -74.43,-4.68 -23.6,-8.07 -43.68,-21.96 -60.27,-41.66 -16.59,-19.71 -27.86,-44.03 -33.81,-72.97zm192.69 -43.16c3.47,16.92 10.51,31.14 21.12,42.67 10.95,11.46 23.99,19.55 39.07,24.29 15.54,5.03 31.94,5.77 49.22,2.21 17.3,-3.55 32.09,-10.71 44.37,-21.46 12.27,-10.76 21.01,-23.52 26.22,-38.3 5.55,-14.86 6.64,-30.56 3.23,-47.1 -3.55,-17.29 -10.85,-31.85 -21.91,-43.68 -10.69,-11.9 -23.79,-20.37 -39.32,-25.41 -15.08,-4.73 -31.43,-5.28 -49.11,-1.65 -16.9,3.48 -31.56,10.41 -43.92,20.79 -12.27,10.75 -21.16,23.74 -26.64,38.97 -5.11,15.16 -5.9,31.38 -2.33,48.67z"/>
   <path class="fil0" d="M4845.13 2410.1l310.17 -27.66 5.8 64.79 -310.2 27.66 -5.77 -64.79zm352.61 -31.44l74.54 -6.65 5.76 64.79 -74.53 6.65 -5.77 -64.79z"/>
   <path class="fil0" d="M4859.18 2559.3l311.34 7.02 -1.41 62.15 -61.01 -1.38 8.23 -7.3c19.39,8.12 33.89,20.72 43.5,37.84 9.97,17.12 14.71,36.8 14.21,59.05 -0.53,23.02 -5.98,43.23 -16.36,60.64 -10.37,17.44 -24.47,30.93 -42.36,40.51 -17.85,9.58 -38.31,14.1 -61.33,13.6l-200.84 -4.52 1.45 -64.46 183.57 4.13c15.74,0.35 29.03,-2.22 39.9,-7.75 11.27,-5.5 19.9,-13.55 25.88,-24.16 6.37,-10.24 9.71,-22.04 10.03,-35.48 0.29,-13.41 -2.49,-25.58 -8.39,-36.46 -5.53,-10.47 -13.79,-18.73 -24.79,-24.74 -10.98,-6 -24.16,-9.18 -39.51,-9.52l-183.56 -4.13 1.45 -65.04z"/>
   <path class="fil0" d="M4811.61 3052.01c5.53,-30.58 17.44,-56.51 35.72,-77.78 18.6,-20.8 41.17,-35.64 67.73,-44.48 26.94,-8.76 55.51,-10.42 85.73,-4.95 30.95,5.61 57.12,17.17 78.52,34.72 21.33,17.88 36.73,39.39 46.23,64.53 9.87,25.16 12.19,52.12 7.01,80.8 -4.18,23.05 -11.85,42.92 -23.07,59.59 -11.22,16.69 -24.93,30 -41.17,39.92 -15.85,10 -33.23,16.62 -52.12,19.82 -19,3.57 -38.5,3.57 -58.5,-0.05 -4.9,-0.9 -9.98,-2.01 -15.19,-3.34 -5.21,-1.35 -10,-2.99 -14.32,-4.95l44.22 -244.1 50.96 9.23 -37.63 207.86 -17.7 -34.79c17.83,7.12 34.5,8.78 50.01,4.97 15.82,-3.38 29.05,-10.74 39.68,-22.06 10.93,-10.9 17.94,-24.85 21.01,-41.83 3.1,-16.99 1.48,-32.89 -4.81,-47.68 -5.9,-14.71 -16.14,-27.1 -30.72,-37.15 -14.18,-9.97 -32.54,-16.22 -55.09,-18.76 -20.42,-5.63 -39.08,-6.08 -55.9,-1.35 -16.94,5.13 -30.99,13.89 -42.2,26.3 -11.3,12.78 -18.58,28.23 -21.86,46.36 -3.36,18.49 -2.04,34.92 3.94,49.26 5.93,14.71 14.79,27.04 26.65,36.99l-34.93 47.49c-13.25,-8.62 -24.58,-20.42 -33.94,-35.4 -9.08,-14.5 -15.4,-31.25 -19,-50.22 -3.26,-18.54 -3.02,-38.18 0.74,-58.95z"/>
   <path class="fil0" d="M4630.13 3601.79c13.15,-28.15 30.46,-52.04 51.91,-71.67 21.28,-19.29 45.27,-33.92 71.94,-43.92 26.54,-9.63 54.4,-14 83.61,-13.05 29.05,1.27 58,8.65 86.86,22.12 28.87,13.47 53.11,30.93 72.74,52.39 19.82,21.96 34.37,46.12 43.65,72.47 9.66,26.54 13.66,54.24 12.02,83.13 -1.27,29.02 -8.5,57.65 -21.65,85.8 -13.3,28.53 -30.61,52.42 -51.88,71.71 -21.11,19.79 -44.93,34.5 -71.44,44.16 -26.7,9.97 -54.56,14.31 -83.61,13.04 -29.05,-1.27 -57.99,-8.65 -86.86,-22.12 -28.84,-13.49 -53.02,-31.11 -72.5,-52.92 -19.63,-21.45 -34.26,-45.43 -43.89,-71.96 -9.63,-26.51 -13.81,-54.3 -12.54,-83.35 1.3,-29.05 8.49,-57.65 21.64,-85.83zm56.33 26.3c-9.42,20.19 -14.37,40.32 -14.84,60.41 -0.66,20.45 2.51,39.95 9.55,58.47 7.36,18.68 18.1,35.56 32.25,50.61 14.48,15.24 31.99,27.65 52.5,37.23 20.53,9.58 41.09,14.95 61.72,16.11 20.64,1.17 40.48,-1.42 59.53,-7.77 19.05,-6.35 36.23,-16.33 51.47,-29.96 15.1,-13.28 27.35,-30 36.77,-50.19 9.42,-20.16 14.45,-40.45 15.11,-60.9 0.48,-20.11 -2.96,-39.51 -10.32,-58.19 -7.38,-18.68 -18.12,-35.56 -32.25,-50.64 -14.31,-14.71 -31.72,-26.88 -52.23,-36.46 -20.53,-9.57 -41.2,-15.18 -61.99,-16.88 -20.64,-1.16 -40.48,1.43 -59.56,7.78 -18.71,6.51 -35.69,16.59 -50.93,30.22 -15.27,13.62 -27.52,30.34 -36.78,50.16z"/>
   <path class="fil0" d="M4431.43 3747.26l346.79 248.34 -36.2 50.53 -52.41 -37.51 16.54 2.62c7.64,19.63 9.92,40.16 6.88,61.56 -3.07,21.41 -11.75,42.1 -26.04,62.07 -17.2,24.03 -38.39,41.41 -63.58,52.18 -25.37,11.09 -51.96,14.92 -79.77,11.56 -27.99,-3.07 -54.48,-13.54 -79.45,-31.4 -24.96,-17.89 -43.4,-39.58 -55.33,-65.12 -12.14,-25.21 -17.33,-51.59 -15.56,-79.11 2.09,-27.3 11.83,-53.13 29.27,-77.44 14.07,-19.66 30.98,-34.71 50.69,-45.11 19.53,-10.11 40.03,-14.05 61.6,-11.86l3.78 15.48 -145.07 -103.9 37.86 -52.89zm43.97 228.31c-10.74,14.97 -16.64,30.8 -17.72,47.49 -1.09,16.67 2.25,32.76 10.05,48.26 7.86,16.01 19.76,29.71 35.67,41.12 15.92,11.4 32.57,18.12 49.95,20.19 17.17,2.4 33.5,0.39 48.92,-6.04 15.45,-6.4 28.55,-17.09 39.27,-32.06 10.5,-14.66 16.4,-30.48 17.72,-47.5 1.09,-16.67 -2.14,-32.91 -9.71,-48.71 -7.8,-15.5 -19.66,-28.94 -35.56,-40.32 -15.9,-11.4 -32.62,-18.39 -50.08,-21.01 -17.41,-2.06 -33.82,0.11 -49.27,6.51 -15.66,6.72 -28.76,17.41 -39.24,32.07z"/>
   <path class="fil0" d="M4212.8 4197.69c22.15,-23.95 46.12,-36.28 71.89,-36.99 25.77,-0.74 50.91,10.24 75.41,32.91l110.67 102.45 37.15 -40.14 43.07 39.9 -5.84 6.32c-9.92,10.72 -14.5,21.89 -13.79,33.53 0.72,11.67 6.43,22.43 17.12,32.33l17.75 16.43 -44.18 47.73 -52.39 -48.47 -48.07 51.94 -43.1 -39.88 48.1 -51.96 -108.56 -100.49c-7.89,-7.27 -15.82,-12.28 -23.81,-14.95 -7.7,-2.43 -15.69,-2.25 -24,0.5 -8.04,3.05 -16.22,9.05 -24.55,18.08 -2.09,2.24 -4.32,4.92 -6.62,7.99 -2.33,3.07 -4.52,6 -6.59,8.81l-40.98 -37.94c3.09,-4.45 6.56,-9.34 10.42,-14.66 3.87,-5.29 7.52,-9.79 10.9,-13.44z"/>
   <path class="fil0" d="M4172.72 4240.23l211.88 228.23 -47.68 44.24 -211.85 -228.23 47.65 -44.24zm240.85 259.45l50.91 54.82 -47.68 44.27 -50.91 -54.85 47.68 -44.24z"/>
   <path class="fil0" d="M4067.47 4347.73l175.55 257.2 -51.33 35.06 -37.97 -55.64 12.49 4.02c6.51,21.11 5.66,40.96 -2.54,59.58 -8.2,18.61 -21.51,34.19 -39.9,46.73 -20.58,14.08 -42.6,20.96 -66.01,20.69 -23.52,0.24 -44.16,-6.83 -61.86,-21.22l14.23 -11.8c6.46,25.8 5.37,49.05 -3.22,69.8 -8.92,20.98 -23.53,38.36 -43.82,52.23 -17.75,12.09 -36.56,18.91 -56.46,20.4 -20.19,1.72 -39.56,-1.8 -58.08,-10.53 -18.49,-8.76 -34.13,-22.47 -46.91,-41.17l-113.56 -166.4 53.71 -36.67 103.53 151.66c8.87,12.99 18.71,22.3 29.51,27.94 10.71,6.16 21.82,8.81 33.31,7.94 11.37,-0.35 22.46,-4.19 33.23,-11.54 10.79,-7.36 18.57,-16.38 23.33,-27.07 5.01,-10.4 6.75,-21.8 5.22,-34.23 -1.51,-12.44 -6.59,-25.01 -15.24,-37.68l-103.53 -151.66 53.26 -36.33 103.5 151.66c8.86,12.99 18.71,22.31 29.53,27.94 10.71,6.14 21.8,8.79 33.28,7.94 11.41,-0.34 22.62,-4.31 33.74,-11.88 10.77,-7.36 18.54,-16.38 23.33,-27.07 4.98,-10.37 6.72,-21.8 5.22,-34.23 -1.86,-12.23 -7.09,-24.66 -15.75,-37.34l-103.5 -151.66 53.71 -36.67z"/>
   <path class="fil0" d="M3632.68 4620.31l135.17 280.53 -58.6 28.23 -135.18 -280.53 58.61 -28.23zm153.67 318.92l32.49 67.39 -58.61 28.26 -32.49 -67.41 58.61 -28.24z"/>
   <polygon class="fil0" points="3527.75,4674.57 3545.71,4725 3447.6,4995.17 3430.3,4977.49 3604.37,4915.5 3624.05,4970.83 3395.77,5052.11 3378.02,5002.21 3473.77,4732.28 3491.23,4750.48 3310.65,4814.77 3290.78,4758.92 "/>
   <path class="fil0" d="M3096.71 4799.22c20.72,-4.02 39.69,-3.97 56.89,0.1 16.9,4.55 30.95,12.39 42.09,23.52 11.22,11.51 18.55,26.12 21.96,43.82 3.23,16.59 2.52,32.15 -2.09,46.72 -4.97,14.66 -14.31,28 -28.02,40.04 -13.68,12.01 -31.85,22.17 -54.47,30.48l-102.85 38.1 -9.73 -50.3 90.62 -34.56c16.37,-6.29 27.75,-14.18 34.13,-23.62 6.45,-9.05 8.52,-19.63 6.16,-31.67 -2.25,-11.7 -8.44,-20.46 -18.57,-26.3 -10.43,-5.43 -22.6,-6.78 -36.54,-4.08 -17.33,3.36 -31.67,10.06 -43.02,20.06 -11.72,10.08 -19.98,22.04 -24.71,35.88 -4.69,14.18 -5.53,28.99 -2.54,44.45l15.21 78.55c2.91,15.05 10.95,26.22 24.08,33.44 12.8,7.68 28.47,9.74 46.91,6.17 16.96,-3.28 30.95,-10.69 42.01,-22.23 10.77,-11.06 17.81,-24.15 21.14,-39.26l58.26 16.27c-2.72,16.17 -9.41,31.14 -20.02,44.93 -10.56,14.15 -23.68,26.09 -39.4,35.77 -16.09,9.76 -33.74,16.51 -52.94,20.21 -24.13,4.69 -46.28,4.29 -66.49,-1.19 -20.59,-5.4 -37.55,-15.21 -50.86,-29.42 -13.6,-13.78 -22.46,-31.22 -26.53,-52.33l-39.85 -205.69 61.04 -11.83 10.71 55.38 -13.33 0.82c4.76,-13.81 11.91,-26.33 21.46,-37.57 9.18,-11.17 20.45,-20.56 33.81,-28.23 12.99,-7.6 28.15,-13.07 45.48,-16.43z"/>
   <path class="fil0" d="M2730.05 4848.51c32.55,-2.38 58.48,4.95 77.79,22.01 19.34,17.07 30.22,42.23 32.65,75.54l10.98 150.42 54.53 -4 4.29 58.55 -8.6 0.64c-14.55,1.06 -25.53,6.08 -32.97,15.11 -7.41,8.99 -10.58,20.77 -9.52,35.32l1.74 24.1 -64.87 4.74 -5.19 -71.18 -70.62 5.16 -4.26 -58.55 70.59 -5.16 -10.76 -147.56c-0.77,-10.71 -3.18,-19.76 -7.17,-27.17 -3.97,-7.01 -9.95,-12.35 -17.92,-16.01 -7.93,-3.25 -18.01,-4.44 -30.26,-3.54 -3.07,0.21 -6.49,0.66 -10.3,1.32 -3.81,0.66 -7.41,1.3 -10.82,1.93l-4.07 -55.66c5.31,-1.17 11.19,-2.36 17.64,-3.6 6.43,-1.25 12.15,-2.07 17.12,-2.41z"/>
   <path class="fil0" d="M2669.41 4852.32l-1.06 311.39 -65.04 -0.21 1.04 -311.42 65.06 0.24zm-1.19 353.99l-0.26 74.82 -65.05 -0.21 0.25 -74.83 65.06 0.22z"/>
   <path class="fil0" d="M2372.01 4828.56c29.73,3.47 56.17,13.68 79.3,30.69 22.75,16.93 39.95,38.45 51.59,64.53 11.64,26.09 15.67,54.56 12.07,85.44 -3.64,31.24 -14.1,58.05 -31.39,80.38 -17.32,22.7 -38.98,39.5 -64.98,50.37 -26.03,11.25 -54.11,15.14 -84.22,11.62 -30.49,-3.55 -56.93,-13.76 -79.3,-30.67 -22.79,-16.56 -39.82,-37.86 -51.08,-63.89 -11.69,-25.72 -15.71,-54.19 -12.07,-85.44 3.64,-31.27 14.13,-58.26 31.45,-80.96 17.33,-22.7 39.01,-39.69 65.05,-50.93 25.99,-10.9 53.85,-14.61 83.58,-11.14zm-6.99 60.03c-18.3,-2.14 -35.01,0.37 -50.13,7.49 -15.13,7.12 -27.58,17.83 -37.36,32.15 -10.2,14.66 -16.44,31.7 -18.71,51.14 -2.26,19.45 -0.09,37.28 6.52,53.5 6.23,16.17 15.89,29.48 28.97,39.87 13.08,10.43 28.77,16.7 47.06,18.82 17.92,2.09 34.63,-0.4 50.14,-7.49 15.12,-7.12 27.76,-17.81 37.92,-32.1 9.78,-14.31 15.81,-31.16 18.07,-50.61 2.27,-19.45 0.31,-37.44 -5.88,-54 -6.61,-16.22 -16.45,-29.56 -29.53,-39.95 -13.47,-10.46 -29.15,-16.73 -47.07,-18.82z"/>
   <path class="fil0" d="M2168.6 4804.75l-84.84 299.61 -59.81 -16.93 16.62 -58.69 5.01 9.79c-12.72,16.72 -28.56,27.6 -47.53,32.6 -19.06,5.37 -39.31,5.03 -60.72,-1.03 -22.15,-6.27 -40.37,-16.62 -54.63,-31.04 -14.27,-14.39 -23.8,-31.46 -28.59,-51.17 -4.79,-19.68 -4.05,-40.61 2.22,-62.76l54.73 -193.3 62.03 17.57 -50.02 176.66c-4.29,15.13 -5.12,28.68 -2.51,40.59 2.5,12.27 8.14,22.64 16.91,31.08 8.3,8.74 18.91,14.95 31.83,18.6 12.92,3.66 25.39,4 37.4,1.01 11.54,-2.7 21.59,-8.63 30.16,-17.78 8.57,-9.13 14.95,-21.09 19.13,-35.85l50.02 -176.69 62.59 17.73z"/>
   <path class="fil0" d="M1706.54 4652.93l-345.17 295.8 -72.76 -42.04 84.03 -446.75 62.8 36.28 -19.7 99.66 151 87.26 77.01 -66.51 62.79 36.3zm-186.99 72.76l-116.12 -67.13 -46.55 232.39 -16.45 -9.5 179.12 -155.76z"/>
   <path class="fil0" d="M1296.83 4230.97c17.34,14.55 31.02,30.8 41.03,48.71 10.01,17.94 16.11,36.33 18.31,55.19 2.44,18.6 0.75,36.73 -5.06,54.38l-61.76 -19.53c5.26,-14.61 5.53,-30.16 0.82,-46.65 -5,-16.72 -15.58,-31.85 -31.75,-45.43 -12.64,-10.61 -26.05,-17.59 -40.24,-21 -13.94,-3.68 -27.8,-3.28 -41.57,1.19 -13.53,4.18 -25.72,12.72 -36.57,25.66l-45.15 53.79 -0.31 -17.54c21.06,-8.36 42.27,-10.37 63.63,-5.95 21.06,4.15 40.7,13.86 58.93,29.15 22.05,18.5 37.57,40.3 46.57,65.38 9,25.11 11.12,50.93 6.36,77.5 -5.05,26.32 -16.95,50.64 -35.7,72.97 -19,22.65 -40.89,38.58 -65.69,47.84 -25.08,8.99 -50.62,11.37 -76.6,7.09 -25.97,-4.26 -50.13,-15.77 -72.47,-34.5 -18.22,-15.32 -31.06,-32.84 -38.51,-52.63 -7.99,-19.74 -10.37,-40.77 -7.15,-63.1l16.98 -6.8 -44.04 52.46 -47.18 -39.58 190.94 -227.51c17.27,-20.59 37.69,-34.77 61.25,-42.55 23.51,-8.31 47.89,-9.89 73.13,-4.76 25.23,5.16 49.17,17.22 71.8,36.22zm-124.28 153.46c-13.22,-11.09 -27.57,-17.89 -43.04,-20.35 -15.71,-2.17 -30.95,-0.42 -45.71,5.24 -15.3,5.69 -28.63,15.3 -39.97,28.82 -11.35,13.52 -18.5,28.31 -21.46,44.37 -2.95,16.06 -1.88,31.48 3.23,46.3 4.86,15.08 13.76,28.07 26.69,38.92 13.52,11.35 28.29,18.23 44.3,20.64 15.76,2.72 31.29,1.21 46.59,-4.48 14.76,-5.66 27.94,-15.37 39.53,-29.21 11.1,-13.2 18.28,-27.72 21.53,-43.55 2.95,-16.06 1.85,-31.75 -3.3,-47.09 -5.4,-15.06 -14.87,-28.26 -28.39,-39.61z"/>
   <path class="fil0" d="M966.67 4070.13c20.34,23.5 33.05,49.03 38.13,76.6 4.54,27.54 1.92,54.42 -7.87,80.64 -10.08,26.49 -26.72,49.77 -49.94,69.85 -23.8,20.59 -49.23,33.71 -76.3,39.37 -27.32,5.37 -53.74,3.87 -79.25,-4.49 -25.8,-8.13 -48.24,-23.21 -67.33,-45.27 -15.31,-17.71 -25.95,-36.15 -31.9,-55.36 -5.96,-19.2 -7.72,-38.23 -5.26,-57.09 2.16,-18.63 7.93,-36.3 17.29,-53.03 9.12,-17.03 21.37,-32.2 36.76,-45.5 3.77,-3.26 7.81,-6.51 12.13,-9.74 4.31,-3.23 8.58,-5.9 12.82,-8.04l162.32 187.61 -39.17 33.9 -138.22 -159.76 38.18 8.07c-16.73,9.39 -28.47,21.33 -35.23,35.8 -7.3,14.44 -9.88,29.34 -7.73,44.74 1.62,15.34 8.07,29.55 19.37,42.62 11.3,13.05 24.68,21.78 40.14,26.17 15.17,4.63 31.24,4.42 48.2,-0.61 16.67,-4.79 33.06,-15.16 49.18,-31.14 17.21,-12.36 29.26,-26.56 36.14,-42.68 6.62,-16.37 8.63,-32.83 6.01,-49.34 -2.86,-16.8 -10.32,-32.17 -22.37,-46.09 -12.31,-14.24 -25.92,-23.52 -40.84,-27.86 -15.17,-4.63 -30.35,-5.45 -45.53,-2.46l-15.06 -57.02c15.05,-4.9 31.34,-6.3 48.87,-4.21 16.99,2.04 34,7.62 51.02,16.75 16.49,9.08 31.63,21.59 45.44,37.57z"/>
   <path class="fil0" d="M835.75 3919.32l-264.42 164.49 -32.84 -52.78 51.81 -32.23 -2.89 10.61c-20.67,3.84 -39.7,1.19 -57.09,-7.86 -17.72,-8.86 -32.46,-22.75 -44.21,-41.64 -12.16,-19.56 -18.67,-39.48 -19.52,-59.72 -0.85,-20.27 3.58,-39.29 13.3,-57.1 9.72,-17.78 24.35,-32.75 43.9,-44.92l170.58 -106.1 34.05 54.71 -155.91 97c-13.36,8.31 -23.08,17.75 -29.17,28.31 -6.41,10.77 -9.22,22.23 -8.43,34.4 0.26,12.04 3.94,23.76 11.03,35.16 7.09,11.4 16.09,20.06 26.98,25.93 10.36,5.77 21.78,8.15 34.27,7.17 12.49,-1.01 25.25,-5.56 38.29,-13.65l155.91 -97 34.36 55.22z"/>
   <path class="fil0" d="M605.41 3479.05c12.18,28.6 16.48,56.81 12.89,84.59 -4.09,27.62 -14.65,52.76 -31.68,75.46 -17.18,22.33 -40.07,39.58 -68.67,51.78 -28.24,12.01 -56.37,16.48 -84.38,13.41 -28.01,-3.09 -53.1,-13.04 -75.29,-29.87 -22.53,-16.67 -39.89,-39.32 -52.08,-67.92 -8.27,-19.42 -12.48,-39.1 -12.64,-59.05 -0.51,-19.79 2.6,-38.45 9.34,-55.91 6.59,-17.83 16.55,-33.13 29.88,-45.88l46.7 42.04c-12.28,12.31 -19.97,27.07 -23.08,44.24 -3.61,16.96 -1.81,33.92 5.41,50.88 6.92,16.25 17.22,29.16 30.9,38.76 13.18,9.4 28.59,14.74 46.22,15.98 17.28,1.41 34.93,-1.74 52.93,-9.42 18.01,-7.67 32.67,-18.28 43.98,-31.88 10.97,-13.41 17.8,-28.2 20.51,-44.39 2.55,-16.51 0.37,-32.89 -6.55,-49.14 -7.36,-17.3 -18.17,-30.42 -32.41,-39.37 -14.74,-9.15 -31.06,-13.68 -48.95,-13.57l2.56 -63.02c17.58,-0.82 35.26,2.51 53.04,9.94 17.26,7.25 33.04,17.84 47.32,31.78 14.28,13.94 25.63,30.8 34.05,50.56z"/>
   <path class="fil0" d="M650.41 3256.56c1.91,7.44 3.09,15.06 3.52,22.89 0.71,7.33 0.53,14.31 -0.54,20.93l-54.06 13.97c-0.03,-4.76 -0.5,-10.37 -1.38,-16.88 -0.52,-6.62 -1.54,-12.89 -3.08,-18.84 -4.51,-17.46 -11.72,-29.26 -21.63,-35.43 -9.64,-6.61 -23.12,-11.27 -40.46,-13.91l-50.88 -8.29 53.24 -12.54 -294.05 215 -17.41 -67.41 226.47 -161.32 5.9 22.83 -276.11 -30.95 -17.55 -68 368.79 46.88c19.66,2.44 37.56,7.33 53.72,14.66 16.43,6.86 30.24,16.57 41.41,29.13 11.08,12.2 19.11,27.97 24.1,47.28z"/>
   <path class="fil0" d="M440.68 2666.99c0.43,26.86 -4.16,51.89 -13.76,75.07 -9.99,23.17 -23.68,42.96 -41.07,59.37 -17.39,16.4 -37.54,28.63 -60.44,36.67l-25.09 -57.18c26.3,-10.79 46.4,-26.27 60.27,-46.43 13.88,-20.19 20.61,-43.34 20.19,-69.43 -0.25,-15.34 -2.77,-28.73 -7.56,-40.16 -5.17,-11.43 -12.22,-20.15 -21.14,-26.15 -8.93,-6.38 -19.15,-9.48 -30.66,-9.29 -15.73,0.25 -28.13,4.86 -37.2,13.83 -9.07,8.99 -16.15,22.14 -21.24,39.49l-24.03 80.99c-9.46,32.39 -24.22,57.18 -44.28,74.4 -20.45,17.2 -44.49,26.04 -72.12,26.49 -24.17,0.37 -45.37,-5.21 -63.59,-16.83 -18.61,-11.59 -33.26,-27.67 -43.95,-48.23 -10.7,-20.93 -16.27,-44.82 -16.7,-71.7 -0.41,-25.7 3.82,-49.19 12.69,-70.44 8.48,-21.24 20.47,-39.46 35.96,-54.68 15.49,-15.6 33.53,-27.02 54.14,-34.26l25.66 56c-22.51,8.81 -39.75,22.33 -51.74,40.56 -11.99,17.84 -17.8,38.47 -17.43,61.86 0.23,14.21 2.92,26.65 8.09,37.31 4.77,10.66 11.81,19 21.12,24.98 8.92,5.63 19.32,8.33 31.22,8.14 13.81,-0.23 26.02,-4.84 36.62,-13.83 10.6,-9 18.44,-22.55 23.53,-40.67l22.39 -75.19c9.81,-34.33 24.36,-60.28 43.66,-77.86 18.9,-17.57 42.74,-26.59 71.52,-27.05 23.79,-0.38 45,5.61 63.62,17.97 18.61,11.99 33.47,28.83 44.56,50.53 10.71,21.69 16.3,46.94 16.76,75.72z"/>
   <path class="fil0" d="M442.04 2443.94l-309.78 -31.78 6.63 -64.7 309.79 31.77 -6.64 64.71zm-352.16 -36.12l-74.44 -7.64 6.64 -64.71 74.44 7.64 -6.64 64.71z"/>
   <path class="fil0" d="M455.8 2299.46l-304.35 -65.92 13.16 -60.76 59.63 12.91 -9.46 5.61c-17.5,-11.64 -29.34,-26.77 -35.52,-45.38 -6.55,-18.7 -7.47,-38.92 -2.76,-60.68 4.88,-22.5 14.06,-41.32 27.55,-56.46 13.48,-15.14 29.91,-25.72 49.27,-31.73 19.37,-6.02 40.3,-6.59 62.8,-1.71l196.34 42.52 -13.65 63.01 -179.46 -38.87c-15.37,-3.33 -28.92,-3.32 -40.64,0.03 -12.09,3.27 -22.09,9.55 -29.99,18.83 -8.2,8.83 -13.72,19.8 -16.56,32.93 -2.84,13.13 -2.4,25.59 1.33,37.39 3.43,11.35 9.97,21.01 19.63,28.99 9.66,7.98 21.99,13.6 36.99,16.85l179.46 38.87 -13.77 63.57z"/>
   <path class="fil0" d="M597.09 1822.87c-11.25,28.97 -27.87,52.16 -49.85,69.56 -22.21,16.89 -47.33,27.51 -75.37,31.86 -27.89,3.99 -56.33,0.35 -85.3,-10.9 -28.62,-11.11 -51.87,-27.55 -69.77,-49.32 -17.89,-21.77 -28.9,-46.42 -33.02,-73.96 -4.49,-27.68 -1.1,-56 10.15,-84.98 7.64,-19.67 18.37,-36.7 32.2,-51.1 13.46,-14.53 28.71,-25.69 45.73,-33.49 17.16,-8.15 34.97,-12.15 53.43,-11.97l4.05 62.7c-17.38,0.25 -33.18,5.43 -47.41,15.55 -14.44,9.63 -24.99,23.02 -31.66,40.19 -6.39,16.46 -8.04,32.9 -4.95,49.33 2.87,15.94 10.17,30.51 21.92,43.71 11.39,13.07 26.21,23.15 44.45,30.24 18.25,7.08 36.16,9.71 53.75,7.9 17.22,-1.96 32.45,-7.78 45.68,-17.46 13.37,-10.04 23.24,-23.29 29.64,-39.74 6.8,-17.53 8.23,-34.47 4.29,-50.82 -4.16,-16.85 -12.68,-31.48 -25.56,-43.89l45.85 -43.33c13.16,11.7 23.5,26.42 31.02,44.16 7.29,17.24 11.19,35.84 11.67,55.79 0.49,19.95 -3.16,39.94 -10.94,59.97z"/>
   <path class="fil0" d="M745.29 1521.38c-15.61,26.89 -35.62,47.22 -60.03,61 -24.56,13.26 -50.83,19.53 -78.81,18.82 -28.31,-0.91 -55.75,-9.06 -82.3,-24.48 -27.21,-15.79 -47.91,-35.56 -62.07,-59.32 -13.98,-24.08 -21.16,-49.55 -21.55,-76.39 -0.72,-27.05 6.24,-53.18 20.88,-78.4 11.75,-20.25 25.73,-36.31 41.95,-48.2 16.22,-11.88 33.64,-19.74 52.28,-23.56 18.3,-4.02 36.89,-4.32 55.77,-0.91 19.06,3.08 37.39,9.72 54.98,19.93 4.32,2.51 8.7,5.27 13.15,8.3 4.46,3.03 8.39,6.2 11.79,9.5l-124.54 214.57 -44.8 -26 106.04 -182.71 4.81 38.73c-14.33,-12.76 -29.45,-19.97 -45.33,-21.65 -16.03,-2.21 -30.97,0.22 -44.82,7.26 -13.99,6.53 -25.32,17.25 -33.99,32.19 -8.67,14.93 -12.55,30.43 -11.66,46.47 0.56,15.86 5.98,30.98 16.25,45.38 9.95,14.2 25.1,26.32 45.45,36.36 17.3,12.25 34.67,19.01 52.13,20.27 17.65,0.93 33.86,-2.53 48.62,-10.38 14.95,-8.18 27.06,-20.24 36.3,-36.17 9.44,-16.26 13.79,-32.15 13.03,-47.68 -0.56,-15.85 -4.72,-30.47 -12.48,-43.85l48.98 -32.79c9.53,12.63 16.17,27.57 19.91,44.82 3.6,16.74 3.86,34.63 0.78,53.7 -3.22,18.54 -10.13,36.94 -20.72,55.19z"/>
   <path class="fil0" d="M941.1 1223.29l-35.46 -33.71 -10.02 -171.56c-1.93,-33.61 -3.83,-60.3 -5.68,-80.07 -1.87,-20.31 -4.99,-36.52 -9.37,-48.62 -4.11,-12.38 -10.75,-22.94 -19.93,-31.66 -15.02,-14.28 -30.92,-20.67 -47.72,-19.16 -17.06,1.25 -32.47,9.1 -46.22,23.56 -14.28,15.02 -22.27,32.05 -23.96,51.09 -1.97,18.78 3.13,37.92 15.29,57.43l-53.76 31.48c-13.24,-18.94 -21.08,-39.09 -23.51,-60.48 -2.72,-21.64 -0.54,-42.87 6.53,-63.68 7.34,-21.08 19.08,-40.11 35.21,-57.07 18.78,-19.74 38.92,-33.42 60.45,-41.02 21.24,-7.86 42.23,-9.61 62.97,-5.25 21.01,4.09 40.13,14.33 57.37,30.72 11.4,10.84 20.41,23.65 27.02,38.41 6.61,14.21 11.65,31.46 15.15,51.73 3.22,20.01 5.59,43.97 7.11,71.89l8.69 151.24 134.46 -141.42 41.72 39.67 -196.34 206.48z"/>
   <path class="fil0" d="M1340.45 863.11c-27.28,20.54 -56.73,31.18 -88.35,31.93 -31.85,0.44 -63.53,-8.13 -95.02,-25.73 -31.43,-18.13 -60.41,-44.83 -86.95,-80.08 -26.78,-35.57 -44.42,-70.8 -52.92,-105.7 -8.2,-35.14 -7.72,-67.68 1.43,-97.63 9.46,-30.18 27.84,-55.54 55.12,-76.08 27.29,-20.55 56.59,-31.07 87.9,-31.59 31.62,-0.75 63.14,7.94 94.56,26.07 31.5,17.6 60.52,44.03 87.06,79.28 26.55,35.26 44.19,70.49 52.92,105.7 8.51,34.91 8.15,67.6 -1.08,98.09 -9.16,29.95 -27.38,55.19 -54.67,75.74zm-37.38 -49.67c16.86,-12.69 27.5,-28.87 31.91,-48.53 4.41,-19.65 2.84,-41.52 -4.72,-65.61 -7.57,-24.08 -21.16,-49.15 -40.78,-75.21 -19.62,-26.06 -39.95,-46.06 -61.01,-59.99 -21.05,-13.93 -41.63,-21.49 -61.74,-22.68 -20.12,-1.19 -38.75,4.68 -55.92,17.6 -16.86,12.7 -27.5,28.87 -31.92,48.53 -4.41,19.65 -2.84,41.52 4.72,65.61 7.57,24.08 21.16,49.16 40.78,75.21 19.39,25.76 39.72,45.75 61.01,59.99 21.06,13.93 41.64,21.49 61.75,22.68 20.41,0.96 39.05,-4.91 55.92,-17.6z"/>
   <path class="fil0" d="M1657.65 668.82c-30.35,15.67 -61.17,21.21 -92.47,16.63 -31.47,-4.91 -61.25,-18.69 -89.34,-41.33 -27.93,-23.15 -52.02,-54.34 -72.26,-93.55 -20.42,-39.56 -31.88,-77.25 -34.4,-113.09 -2.18,-36.02 3.76,-68.01 17.81,-96 14.4,-28.16 36.78,-50.07 67.13,-65.74 30.35,-15.66 61,-21.12 91.95,-16.37 31.3,4.58 60.91,18.44 88.84,41.6 28.09,22.64 52.26,53.56 72.5,92.78 20.24,39.21 31.71,76.91 34.41,113.09 2.51,35.84 -3.34,68.01 -17.56,96.51 -14.06,27.98 -36.26,49.81 -66.61,65.47zm-28.51 -55.24c18.75,-9.68 31.96,-23.84 39.61,-42.47 7.66,-18.64 9.78,-40.46 6.37,-65.47 -3.41,-25.02 -12.59,-52.02 -27.55,-81 -14.97,-28.99 -31.65,-52.12 -50.07,-69.39 -18.41,-17.27 -37.43,-28.18 -57.06,-32.73 -19.62,-4.55 -38.98,-1.9 -58.07,7.95 -18.76,9.68 -31.97,23.84 -39.62,42.47 -7.66,18.64 -9.78,40.46 -6.37,65.48 3.41,25.01 12.6,52.01 27.56,80.99 14.78,28.65 31.47,51.78 50.06,69.39 18.41,17.27 37.43,28.18 57.06,32.73 19.96,4.38 39.32,1.73 58.08,-7.95z"/>
   <polygon class="fil0" points="1899.26,557.96 1776.59,207.55 1698.9,234.74 1679.88,180.42 1821.13,130.97 1962.83,535.71 "/>
   <polygon class="fil0" points="2267.94,244.38 2222.11,219.98 2257.73,154.56 2186.7,141.23 2195.82,89.97 2266.84,103.3 2256.41,28.62 2308.29,21.38 2318.72,96.06 2383.38,63.78 2406.18,110.58 2341.53,142.86 2394.27,195.94 2356.88,231.96 2304.13,178.88 "/>
  </g>
 </g>
</svg>
